Assistant-ExtraBold.ufo
<glyph name="percent" format="2">
  <advance width="860"/>
  <unicode hex="0025"/>
  <outline>
    <contour>
      <point x="208" y="-12" type="line"/>
      <point x="304" y="-12" type="line"/>
      <point x="652" y="662" type="line"/>
      <point x="556" y="662" type="line"/>
    </contour>
    <contour>
      <point x="190" y="268" type="curve" smooth="yes"/>
      <point x="286" y="268"/>
      <point x="358" y="346"/>
      <point x="358" y="476" type="curve" smooth="yes"/>
      <point x="358" y="606"/>
      <point x="286" y="682"/>
      <point x="190" y="682" type="curve" smooth="yes"/>
      <point x="94" y="682"/>
      <point x="22" y="606"/>
      <point x="22" y="476" type="curve" smooth="yes"/>
      <point x="22" y="346"/>
      <point x="94" y="268"/>
    </contour>
    <contour>
      <point x="190" y="362" type="curve" smooth="yes"/>
      <point x="164" y="362"/>
      <point x="140" y="388"/>
      <point x="140" y="476" type="curve" smooth="yes"/>
      <point x="140" y="564"/>
      <point x="164" y="588"/>
      <point x="190" y="588" type="curve" smooth="yes"/>
      <point x="216" y="588"/>
      <point x="240" y="564"/>
      <point x="240" y="476" type="curve" smooth="yes"/>
      <point x="240" y="388"/>
      <point x="216" y="362"/>
    </contour>
    <contour>
      <point x="670" y="-12" type="curve" smooth="yes"/>
      <point x="766" y="-12"/>
      <point x="838" y="66"/>
      <point x="838" y="196" type="curve" smooth="yes"/>
      <point x="838" y="326"/>
      <point x="766" y="402"/>
      <point x="670" y="402" type="curve" smooth="yes"/>
      <point x="574" y="402"/>
      <point x="502" y="326"/>
      <point x="502" y="196" type="curve" smooth="yes"/>
      <point x="502" y="66"/>
      <point x="574" y="-12"/>
    </contour>
    <contour>
      <point x="670" y="82" type="curve" smooth="yes"/>
      <point x="644" y="82"/>
      <point x="620" y="108"/>
      <point x="620" y="196" type="curve" smooth="yes"/>
      <point x="620" y="284"/>
      <point x="644" y="308"/>
      <point x="670" y="308" type="curve" smooth="yes"/>
      <point x="696" y="308"/>
      <point x="720" y="284"/>
      <point x="720" y="196" type="curve" smooth="yes"/>
      <point x="720" y="108"/>
      <point x="696" y="82"/>
    </contour>
  </outline>
</glyph>
<glyph name="hyphen" format="2">
  <advance width="340"/>
  <unicode hex="002D"/>
  <outline>
    <contour>
      <point x="44" y="194" type="line"/>
      <point x="296" y="194" type="line"/>
      <point x="296" y="314" type="line"/>
      <point x="44" y="314" type="line"/>
    </contour>
  </outline>
</glyph>
<glyph name="period" format="2">
  <advance width="320"/>
  <unicode hex="002E"/>
  <outline>
    <contour>
      <point x="160" y="-12" type="curve" smooth="yes"/>
      <point x="218" y="-12"/>
      <point x="260" y="34"/>
      <point x="260" y="92" type="curve" smooth="yes"/>
      <point x="260" y="150"/>
      <point x="218" y="196"/>
      <point x="160" y="196" type="curve" smooth="yes"/>
      <point x="102" y="196"/>
      <point x="60" y="150"/>
      <point x="60" y="92" type="curve" smooth="yes"/>
      <point x="60" y="34"/>
      <point x="102" y="-12"/>
    </contour>
  </outline>
</glyph>
<glyph name="one" format="2">
  <advance width="492"/>
  <unicode hex="0031"/>
  <outline>
    <contour>
      <point x="35" y="0" type="line"/>
      <point x="457" y="0" type="line"/>
      <point x="457" y="138" type="line"/>
      <point x="343" y="138" type="line"/>
      <point x="343" y="634" type="line"/>
      <point x="217" y="634" type="line"/>
      <point x="169" y="604"/>
      <point x="123" y="586"/>
      <point x="51" y="572" type="curve"/>
      <point x="51" y="466" type="line"/>
      <point x="171" y="466" type="line"/>
      <point x="171" y="138" type="line"/>
      <point x="35" y="138" type="line"/>
    </contour>
  </outline>
</glyph>
<glyph name="A" format="2">
  <advance width="584"/>
  <unicode hex="0041"/>
  <anchor x="288" y="670" name="aboveUC"/>
  <anchor x="500" y="0" name="baseLC"/>
  <anchor x="288" y="-20" name="belowLC"/>
  <anchor x="484" y="0" name="ogonekUC"/>
  <outline>
    <contour>
      <point x="-10" y="0" type="line"/>
      <point x="166" y="0" type="line"/>
      <point x="240" y="316" type="line" smooth="yes"/>
      <point x="256" y="378"/>
      <point x="272" y="456"/>
      <point x="286" y="522" type="curve"/>
      <point x="290" y="522" type="line"/>
      <point x="306" y="457"/>
      <point x="322" y="378"/>
      <point x="338" y="316" type="curve" smooth="yes"/>
      <point x="412" y="0" type="line"/>
      <point x="594" y="0" type="line"/>
      <point x="396" y="650" type="line"/>
      <point x="188" y="650" type="line"/>
    </contour>
    <contour>
      <point x="132" y="138" type="line"/>
      <point x="450" y="138" type="line"/>
      <point x="450" y="271" type="line"/>
      <point x="132" y="271" type="line"/>
    </contour>
  </outline>
</glyph>
<glyph name="F" format="2">
  <advance width="536"/>
  <unicode hex="0046"/>
  <anchor x="290" y="670" name="aboveUC"/>
  <anchor x="160" y="0" name="baseLC"/>
  <anchor x="168" y="-20" name="belowLC"/>
  <outline>
    <contour>
      <point x="72" y="0" type="line"/>
      <point x="244" y="0" type="line"/>
      <point x="244" y="238" type="line"/>
      <point x="460" y="238" type="line"/>
      <point x="460" y="382" type="line"/>
      <point x="244" y="382" type="line"/>
      <point x="244" y="506" type="line"/>
      <point x="496" y="506" type="line"/>
      <point x="496" y="650" type="line"/>
      <point x="72" y="650" type="line"/>
    </contour>
  </outline>
</glyph>
<glyph name="H" format="2">
  <advance width="682"/>
  <unicode hex="0048"/>
  <anchor x="340" y="670" name="aboveUC"/>
  <anchor x="160" y="0" name="baseLC"/>
  <anchor x="340" y="-20" name="belowLC"/>
  <outline>
    <contour>
      <point x="72" y="0" type="line"/>
      <point x="244" y="0" type="line"/>
      <point x="244" y="258" type="line"/>
      <point x="438" y="258" type="line"/>
      <point x="438" y="0" type="line"/>
      <point x="610" y="0" type="line"/>
      <point x="610" y="650" type="line"/>
      <point x="438" y="650" type="line"/>
      <point x="438" y="408" type="line"/>
      <point x="244" y="408" type="line"/>
      <point x="244" y="650" type="line"/>
      <point x="72" y="650" type="line"/>
    </contour>
  </outline>
</glyph>
<glyph name="J" format="2">
  <advance width="520"/>
  <unicode hex="004A"/>
  <anchor x="364" y="670" name="aboveUC"/>
  <anchor x="276" y="-20" name="belowLC"/>
  <outline>
    <contour>
      <point x="232" y="-12" type="curve" smooth="yes"/>
      <point x="382" y="-12"/>
      <point x="452" y="96"/>
      <point x="452" y="226" type="curve" smooth="yes"/>
      <point x="452" y="650" type="line"/>
      <point x="280" y="650" type="line"/>
      <point x="280" y="240" type="line" smooth="yes"/>
      <point x="280" y="158"/>
      <point x="254" y="136"/>
      <point x="208" y="136" type="curve" smooth="yes"/>
      <point x="180" y="136"/>
      <point x="148" y="156"/>
      <point x="126" y="198" type="curve"/>
      <point x="10" y="111" type="line"/>
      <point x="58" y="28"/>
      <point x="126" y="-12"/>
    </contour>
  </outline>
</glyph>
<glyph name="M" format="2">
  <advance width="776"/>
  <unicode hex="004D"/>
  <anchor x="388" y="670" name="aboveUC"/>
  <anchor x="630" y="0" name="baseLC"/>
  <anchor x="390" y="-20" name="belowLC"/>
  <outline>
    <contour>
      <point x="72" y="0" type="line"/>
      <point x="226" y="0" type="line"/>
      <point x="226" y="192" type="line" smooth="yes"/>
      <point x="226" y="258"/>
      <point x="212" y="359"/>
      <point x="204" y="424" type="curve"/>
      <point x="208" y="424" type="line"/>
      <point x="260" y="268" type="line"/>
      <point x="340" y="53" type="line"/>
      <point x="432" y="53" type="line"/>
      <point x="512" y="268" type="line"/>
      <point x="566" y="424" type="line"/>
      <point x="570" y="424" type="line"/>
      <point x="562" y="359"/>
      <point x="548" y="258"/>
      <point x="548" y="192" type="curve" smooth="yes"/>
      <point x="548" y="0" type="line"/>
      <point x="704" y="0" type="line"/>
      <point x="704" y="650" type="line"/>
      <point x="520" y="650" type="line"/>
      <point x="426" y="384" type="line"/>
      <point x="414" y="348"/>
      <point x="404" y="308"/>
      <point x="392" y="270" type="curve"/>
      <point x="388" y="270" type="line"/>
      <point x="376" y="308"/>
      <point x="366" y="348"/>
      <point x="354" y="384" type="curve"/>
      <point x="256" y="650" type="line"/>
      <point x="72" y="650" type="line"/>
    </contour>
  </outline>
</glyph>
<glyph name="O" format="2">
  <advance width="692"/>
  <unicode hex="004F"/>
  <anchor x="346" y="670" name="aboveUC"/>
  <anchor x="346" y="0" name="baseLC"/>
  <anchor x="346" y="-20" name="belowLC"/>
  <anchor x="490" y="640" name="hornLC"/>
  <anchor x="346" y="0" name="ogonekUC"/>
  <outline>
    <contour>
      <point x="346" y="-12" type="curve" smooth="yes"/>
      <point x="526" y="-12"/>
      <point x="648" y="114"/>
      <point x="648" y="328" type="curve" smooth="yes"/>
      <point x="648" y="541"/>
      <point x="526" y="662"/>
      <point x="346" y="662" type="curve" smooth="yes"/>
      <point x="166" y="662"/>
      <point x="44" y="542"/>
      <point x="44" y="328" type="curve" smooth="yes"/>
      <point x="44" y="114"/>
      <point x="166" y="-12"/>
    </contour>
    <contour>
      <point x="346" y="136" type="curve" smooth="yes"/>
      <point x="268" y="136"/>
      <point x="220" y="210"/>
      <point x="220" y="328" type="curve" smooth="yes"/>
      <point x="220" y="446"/>
      <point x="268" y="514"/>
      <point x="346" y="514" type="curve" smooth="yes"/>
      <point x="424" y="514"/>
      <point x="472" y="446"/>
      <point x="472" y="328" type="curve" smooth="yes"/>
      <point x="472" y="210"/>
      <point x="424" y="136"/>
    </contour>
  </outline>
</glyph>
<glyph name="R" format="2">
  <advance width="630"/>
  <unicode hex="0052"/>
  <anchor x="316" y="670" name="aboveUC"/>
  <anchor x="160" y="0" name="baseLC"/>
  <anchor x="334" y="-20" name="belowLC"/>
  <outline>
    <contour>
      <point x="72" y="0" type="line"/>
      <point x="244" y="0" type="line"/>
      <point x="244" y="218" type="line"/>
      <point x="318" y="218" type="line" smooth="yes"/>
      <point x="458" y="218"/>
      <point x="578" y="283"/>
      <point x="578" y="440" type="curve" smooth="yes"/>
      <point x="578" y="602"/>
      <point x="458" y="650"/>
      <point x="318" y="650" type="curve" smooth="yes"/>
      <point x="72" y="650" type="line"/>
    </contour>
    <contour>
      <point x="422" y="0" type="line"/>
      <point x="614" y="0" type="line"/>
      <point x="403" y="377" type="line"/>
      <point x="287" y="263" type="line"/>
    </contour>
    <contour>
      <point x="244" y="354" type="line"/>
      <point x="244" y="514" type="line"/>
      <point x="306" y="514" type="line" smooth="yes"/>
      <point x="374" y="514"/>
      <point x="410" y="496"/>
      <point x="410" y="440" type="curve" smooth="yes"/>
      <point x="410" y="384"/>
      <point x="374" y="354"/>
      <point x="306" y="354" type="curve" smooth="yes"/>
    </contour>
  </outline>
</glyph>
<glyph name="T" format="2">
  <advance width="564"/>
  <unicode hex="0054"/>
  <anchor x="282" y="670" name="aboveUC"/>
  <anchor x="282" y="0" name="baseLC"/>
  <anchor x="282" y="-20" name="belowLC"/>
  <outline>
    <contour>
      <point x="196" y="0" type="line"/>
      <point x="368" y="0" type="line"/>
      <point x="368" y="506" type="line"/>
      <point x="540" y="506" type="line"/>
      <point x="540" y="650" type="line"/>
      <point x="24" y="650" type="line"/>
      <point x="24" y="506" type="line"/>
      <point x="196" y="506" type="line"/>
    </contour>
  </outline>
</glyph>
<glyph name="Z" format="2">
  <advance width="542"/>
  <unicode hex="005A"/>
  <anchor x="284" y="670" name="aboveUC"/>
  <anchor x="300" y="0" name="baseLC"/>
  <anchor x="282" y="-20" name="belowLC"/>
  <outline>
    <contour>
      <point x="32" y="0" type="line"/>
      <point x="512" y="0" type="line"/>
      <point x="512" y="144" type="line"/>
      <point x="244" y="144" type="line"/>
      <point x="510" y="546" type="line"/>
      <point x="510" y="650" type="line"/>
      <point x="58" y="650" type="line"/>
      <point x="58" y="506" type="line"/>
      <point x="298" y="506" type="line"/>
      <point x="32" y="104" type="line"/>
    </contour>
  </outline>
</glyph>
<glyph name="a" format="2">
  <advance width="536"/>
  <unicode hex="0061"/>
  <anchor x="290" y="520" name="aboveLC"/>
  <anchor x="410" y="0" name="baseLC"/>
  <anchor x="260" y="-20" name="belowLC"/>
  <anchor x="370" y="0" name="ogonekLC"/>
  <outline>
    <contour>
      <point x="188" y="-12" type="curve" smooth="yes"/>
      <point x="242" y="-12"/>
      <point x="286" y="12"/>
      <point x="326" y="48" type="curve"/>
      <point x="330" y="48" type="line"/>
      <point x="342" y="0" type="line"/>
      <point x="482" y="0" type="line"/>
      <point x="482" y="278" type="line" smooth="yes"/>
      <point x="482" y="442"/>
      <point x="404" y="512"/>
      <point x="274" y="512" type="curve" smooth="yes"/>
      <point x="196" y="512"/>
      <point x="124" y="488"/>
      <point x="54" y="446" type="curve"/>
      <point x="114" y="334" type="line"/>
      <point x="166" y="362"/>
      <point x="204" y="376"/>
      <point x="240" y="376" type="curve" smooth="yes"/>
      <point x="284" y="376"/>
      <point x="306" y="360"/>
      <point x="310" y="324" type="curve"/>
      <point x="118" y="304"/>
      <point x="38" y="246"/>
      <point x="38" y="142" type="curve" smooth="yes"/>
      <point x="38" y="60"/>
      <point x="94" y="-12"/>
    </contour>
    <contour>
      <point x="248" y="120" type="curve" smooth="yes"/>
      <point x="218" y="120"/>
      <point x="202" y="133"/>
      <point x="202" y="156" type="curve" smooth="yes"/>
      <point x="202" y="184"/>
      <point x="228" y="210"/>
      <point x="310" y="222" type="curve"/>
      <point x="310" y="154" type="line"/>
      <point x="292" y="134"/>
      <point x="276" y="120"/>
    </contour>
  </outline>
</glyph>
<glyph name="e" format="2">
  <advance width="526"/>
  <unicode hex="0065"/>
  <anchor x="280" y="520" name="aboveLC"/>
  <anchor x="270" y="0" name="baseLC"/>
  <anchor x="270" y="-20" name="belowLC"/>
  <anchor x="350" y="0" name="ogonekLC"/>
  <outline>
    <contour>
      <point x="290" y="-12" type="curve" smooth="yes"/>
      <point x="346" y="-12"/>
      <point x="418" y="8"/>
      <point x="472" y="46" type="curve"/>
      <point x="416" y="148" type="line"/>
      <point x="380" y="128"/>
      <point x="348" y="118"/>
      <point x="314" y="118" type="curve" smooth="yes"/>
      <point x="254" y="118"/>
      <point x="188" y="144"/>
      <point x="188" y="250" type="curve" smooth="yes"/>
      <point x="188" y="350"/>
      <point x="232" y="382"/>
      <point x="276" y="382" type="curve" smooth="yes"/>
      <point x="328" y="382"/>
      <point x="344" y="348"/>
      <point x="344" y="310" type="curve"/>
      <point x="166" y="310" type="line"/>
      <point x="168" y="198" type="line"/>
      <point x="483" y="198" type="line"/>
      <point x="486" y="210"/>
      <point x="490" y="240"/>
      <point x="490" y="270" type="curve" smooth="yes"/>
      <point x="490" y="404"/>
      <point x="420" y="512"/>
      <point x="272" y="512" type="curve" smooth="yes"/>
      <point x="150" y="512"/>
      <point x="32" y="412"/>
      <point x="32" y="250" type="curve" smooth="yes"/>
      <point x="32" y="84"/>
      <point x="144" y="-12"/>
    </contour>
  </outline>
</glyph>
<glyph name="f" format="2">
  <advance width="360"/>
  <unicode hex="0066"/>
  <anchor x="250" y="730" name="aboveUC"/>
  <anchor x="180" y="0" name="baseLC"/>
  <anchor x="174" y="-20" name="belowLC"/>
  <outline>
    <contour>
      <point x="88" y="0" type="line"/>
      <point x="260" y="0" type="line"/>
      <point x="260" y="512" type="line" smooth="yes"/>
      <point x="260" y="559"/>
      <point x="280" y="574"/>
      <point x="312" y="574" type="curve" smooth="yes"/>
      <point x="328" y="574"/>
      <point x="346" y="570"/>
      <point x="362" y="564" type="curve"/>
      <point x="392" y="690" type="line"/>
      <point x="370" y="698"/>
      <point x="332" y="708"/>
      <point x="286" y="708" type="curve" smooth="yes"/>
      <point x="138" y="708"/>
      <point x="88" y="613"/>
      <point x="88" y="506" type="curve" smooth="yes"/>
    </contour>
    <contour>
      <point x="22" y="366" type="line"/>
      <point x="344" y="366" type="line"/>
      <point x="344" y="500" type="line"/>
      <point x="98" y="500" type="line"/>
      <point x="22" y="494" type="line"/>
    </contour>
  </outline>
</glyph>
<glyph name="k" format="2">
  <advance width="568"/>
  <unicode hex="006B"/>
  <anchor x="146" y="730" name="aboveUC"/>
  <anchor x="304" y="-20" name="belowLC"/>
  <outline>
    <contour>
      <point x="58" y="0" type="line"/>
      <point x="226" y="0" type="line"/>
      <point x="226" y="120" type="line"/>
      <point x="278" y="178" type="line"/>
      <point x="378" y="0" type="line"/>
      <point x="564" y="0" type="line"/>
      <point x="376" y="292" type="line"/>
      <point x="554" y="500" type="line"/>
      <point x="368" y="500" type="line"/>
      <point x="230" y="326" type="line"/>
      <point x="226" y="326" type="line"/>
      <point x="226" y="696" type="line"/>
      <point x="58" y="696" type="line"/>
    </contour>
  </outline>
</glyph>
<glyph name="n" format="2">
  <advance width="582"/>
  <unicode hex="006E"/>
  <anchor x="320" y="520" name="aboveLC"/>
  <anchor x="440" y="0" name="baseLC"/>
  <anchor x="300" y="-20" name="belowLC"/>
  <outline>
    <contour>
      <point x="58" y="0" type="line"/>
      <point x="230" y="0" type="line"/>
      <point x="230" y="328" type="line"/>
      <point x="256" y="352"/>
      <point x="274" y="366"/>
      <point x="306" y="366" type="curve" smooth="yes"/>
      <point x="340" y="366"/>
      <point x="356" y="350"/>
      <point x="356" y="286" type="curve" smooth="yes"/>
      <point x="356" y="0" type="line"/>
      <point x="528" y="0" type="line"/>
      <point x="528" y="308" type="line" smooth="yes"/>
      <point x="528" y="432"/>
      <point x="482" y="512"/>
      <point x="372" y="512" type="curve" smooth="yes"/>
      <point x="304" y="512"/>
      <point x="254" y="478"/>
      <point x="214" y="440" type="curve"/>
      <point x="210" y="440" type="line"/>
      <point x="198" y="500" type="line"/>
      <point x="58" y="500" type="line"/>
    </contour>
  </outline>
</glyph>
<glyph name="o" format="2">
  <advance width="560"/>
  <unicode hex="006F"/>
  <anchor x="280" y="520" name="aboveLC"/>
  <anchor x="280" y="0" name="baseLC"/>
  <anchor x="280" y="-20" name="belowLC"/>
  <anchor x="374" y="500" name="hornLC"/>
  <anchor x="280" y="0" name="ogonekLC"/>
  <outline>
    <contour>
      <point x="280" y="-12" type="curve" smooth="yes"/>
      <point x="408" y="-12"/>
      <point x="528" y="84"/>
      <point x="528" y="250" type="curve" smooth="yes"/>
      <point x="528" y="416"/>
      <point x="408" y="512"/>
      <point x="280" y="512" type="curve" smooth="yes"/>
      <point x="152" y="512"/>
      <point x="32" y="416"/>
      <point x="32" y="250" type="curve" smooth="yes"/>
      <point x="32" y="84"/>
      <point x="152" y="-12"/>
    </contour>
    <contour>
      <point x="280" y="126" type="curve" smooth="yes"/>
      <point x="228" y="126"/>
      <point x="208" y="174"/>
      <point x="208" y="250" type="curve" smooth="yes"/>
      <point x="208" y="326"/>
      <point x="228" y="374"/>
      <point x="280" y="374" type="curve" smooth="yes"/>
      <point x="332" y="374"/>
      <point x="352" y="326"/>
      <point x="352" y="250" type="curve" smooth="yes"/>
      <point x="352" y="174"/>
      <point x="332" y="126"/>
    </contour>
  </outline>
</glyph>
<glyph name="r" format="2">
  <advance width="418"/>
  <unicode hex="0072"/>
  <anchor x="250" y="520" name="aboveLC"/>
  <anchor x="150" y="0" name="baseLC"/>
  <anchor x="144" y="-20" name="belowLC"/>
  <outline>
    <contour>
      <point x="58" y="0" type="line"/>
      <point x="230" y="0" type="line"/>
      <point x="230" y="278" type="line"/>
      <point x="254" y="340"/>
      <point x="298" y="362"/>
      <point x="334" y="362" type="curve" smooth="yes"/>
      <point x="356" y="362"/>
      <point x="372" y="358"/>
      <point x="390" y="354" type="curve"/>
      <point x="418" y="502" type="line"/>
      <point x="404" y="508"/>
      <point x="387" y="512"/>
      <point x="356" y="512" type="curve" smooth="yes"/>
      <point x="307" y="512"/>
      <point x="251" y="482"/>
      <point x="214" y="414" type="curve"/>
      <point x="210" y="414" type="line"/>
      <point x="198" y="500" type="line"/>
      <point x="58" y="500" type="line"/>
    </contour>
  </outline>
</glyph>
<glyph name="y" format="2">
  <advance width="542"/>
  <unicode hex="0079"/>
  <anchor x="280" y="520" name="aboveLC"/>
  <anchor x="260" y="-200" name="belowLC"/>
  <anchor x="270" y="0" name="ogonekLC"/>
  <outline>
    <contour>
      <point x="132" y="-188" type="curve" smooth="yes"/>
      <point x="256" y="-188"/>
      <point x="310" y="-127"/>
      <point x="362" y="8" type="curve"/>
      <point x="530" y="500" type="line"/>
      <point x="366" y="500" type="line"/>
      <point x="316" y="308" type="line" smooth="yes"/>
      <point x="304" y="260"/>
      <point x="294" y="214"/>
      <point x="284" y="166" type="curve"/>
      <point x="280" y="166" type="line"/>
      <point x="268" y="216"/>
      <point x="258" y="262"/>
      <point x="244" y="308" type="curve" smooth="yes"/>
      <point x="184" y="500" type="line"/>
      <point x="12" y="500" type="line"/>
      <point x="202" y="18" type="line"/>
      <point x="196" y="-4" type="line" smooth="yes"/>
      <point x="186" y="-34"/>
      <point x="164" y="-54"/>
      <point x="118" y="-54" type="curve" smooth="yes"/>
      <point x="108" y="-54"/>
      <point x="95" y="-50"/>
      <point x="86" y="-48" type="curve"/>
      <point x="56" y="-178" type="line"/>
      <point x="78" y="-184"/>
      <point x="98" y="-188"/>
    </contour>
  </outline>
</glyph>
<glyph name="z" format="2">
  <advance width="474"/>
  <unicode hex="007A"/>
  <anchor x="260" y="520" name="aboveLC"/>
  <anchor x="250" y="0" name="baseLC"/>
  <anchor x="250" y="-20" name="belowLC"/>
  <outline>
    <contour>
      <point x="40" y="0" type="line"/>
      <point x="450" y="0" type="line"/>
      <point x="450" y="134" type="line"/>
      <point x="254" y="134" type="line"/>
      <point x="444" y="408" type="line"/>
      <point x="444" y="500" type="line"/>
      <point x="62" y="500" type="line"/>
      <point x="62" y="366" type="line"/>
      <point x="230" y="366" type="line"/>
      <point x="40" y="92" type="line"/>
    </contour>
  </outline>
</glyph>
<glyph name="bar" format="2">
  <advance width="278"/>
  <unicode hex="007C"/>
  <outline>
    <contour>
      <point x="84" y="-250" type="line"/>
      <point x="194" y="-250" type="line"/>
      <point x="194" y="750" type="line"/>
      <point x="84" y="750" type="line"/>
    </contour>
  </outline>
</glyph>
<glyph name="threesuperior" format="2">
  <advance width="379"/>
  <unicode hex="00B3"/>
  <outline>
    <contour>
      <point x="188" y="388" type="curve" smooth="yes"/>
      <point x="270" y="388"/>
      <point x="344" y="438"/>
      <point x="344" y="510" type="curve" smooth="yes"/>
      <point x="344" y="554"/>
      <point x="316" y="586"/>
      <point x="278" y="604" type="curve"/>
      <point x="312" y="626"/>
      <point x="330" y="652"/>
      <point x="330" y="692" type="curve" smooth="yes"/>
      <point x="330" y="760"/>
      <point x="264" y="802"/>
      <point x="190" y="802" type="curve" smooth="yes"/>
      <point x="126" y="802"/>
      <point x="86" y="782"/>
      <point x="40" y="734" type="curve"/>
      <point x="110" y="672" type="line"/>
      <point x="126" y="692"/>
      <point x="144" y="708"/>
      <point x="168" y="708" type="curve" smooth="yes"/>
      <point x="192" y="708"/>
      <point x="208" y="696"/>
      <point x="208" y="674" type="curve" smooth="yes"/>
      <point x="208" y="644"/>
      <point x="181" y="634"/>
      <point x="140" y="634" type="curve"/>
      <point x="140" y="564" type="line"/>
      <point x="197" y="564"/>
      <point x="222" y="550"/>
      <point x="222" y="520" type="curve" smooth="yes"/>
      <point x="222" y="496"/>
      <point x="201" y="482"/>
      <point x="174" y="482" type="curve" smooth="yes"/>
      <point x="144" y="482"/>
      <point x="122" y="494"/>
      <point x="98" y="526" type="curve"/>
      <point x="24" y="468" type="line"/>
      <point x="60" y="414"/>
      <point x="118" y="388"/>
    </contour>
  </outline>
</glyph>
<glyph name="threequarters" format="2">
  <advance width="860"/>
  <unicode hex="00BE"/>
  <outline>
    <contour>
      <point x="208" y="-12" type="line"/>
      <point x="304" y="-12" type="line"/>
      <point x="652" y="662" type="line"/>
      <point x="556" y="662" type="line"/>
    </contour>
    <contour>
      <point x="188" y="288" type="curve" smooth="yes"/>
      <point x="270" y="288"/>
      <point x="344" y="338"/>
      <point x="344" y="410" type="curve" smooth="yes"/>
      <point x="344" y="454"/>
      <point x="316" y="486"/>
      <point x="278" y="504" type="curve"/>
      <point x="312" y="526"/>
      <point x="330" y="552"/>
      <point x="330" y="592" type="curve" smooth="yes"/>
      <point x="330" y="660"/>
      <point x="264" y="702"/>
      <point x="190" y="702" type="curve" smooth="yes"/>
      <point x="126" y="702"/>
      <point x="86" y="682"/>
      <point x="40" y="634" type="curve"/>
      <point x="110" y="572" type="line"/>
      <point x="126" y="592"/>
      <point x="144" y="608"/>
      <point x="168" y="608" type="curve" smooth="yes"/>
      <point x="192" y="608"/>
      <point x="208" y="596"/>
      <point x="208" y="574" type="curve" smooth="yes"/>
      <point x="208" y="544"/>
      <point x="181" y="534"/>
      <point x="140" y="534" type="curve"/>
      <point x="140" y="464" type="line"/>
      <point x="197" y="464"/>
      <point x="222" y="450"/>
      <point x="222" y="420" type="curve" smooth="yes"/>
      <point x="222" y="396"/>
      <point x="201" y="382"/>
      <point x="174" y="382" type="curve" smooth="yes"/>
      <point x="144" y="382"/>
      <point x="122" y="394"/>
      <point x="98" y="426" type="curve"/>
      <point x="24" y="368" type="line"/>
      <point x="60" y="314"/>
      <point x="118" y="288"/>
    </contour>
    <contour>
      <point x="692" y="0" type="line"/>
      <point x="802" y="0" type="line"/>
      <point x="802" y="390" type="line"/>
      <point x="644" y="390" type="line"/>
      <point x="512" y="142" type="line"/>
      <point x="512" y="80" type="line"/>
      <point x="860" y="80" type="line"/>
      <point x="860" y="160" type="line"/>
      <point x="624" y="160" type="line"/>
      <point x="658" y="234" type="line"/>
      <point x="694" y="310" type="line"/>
      <point x="698" y="310" type="line"/>
      <point x="692" y="190" type="line"/>
    </contour>
  </outline>
</glyph>
<glyph name="AE" format="2">
  <advance width="854"/>
  <unicode hex="00C6"/>
  <anchor x="540" y="694" name="aboveUC"/>
  <anchor x="630" y="0" name="baseLC"/>
  <anchor x="460" y="-20" name="belowLC"/>
  <outline>
    <contour>
      <point x="-22" y="0" type="line"/>
      <point x="158" y="0" type="line"/>
      <point x="308" y="348" type="line"/>
      <point x="330" y="400"/>
      <point x="352" y="460"/>
      <point x="376" y="522" type="curve"/>
      <point x="380" y="522" type="line"/>
      <point x="380" y="0" type="line"/>
      <point x="800" y="0" type="line"/>
      <point x="800" y="144" type="line"/>
      <point x="552" y="144" type="line"/>
      <point x="552" y="260" type="line"/>
      <point x="754" y="260" type="line"/>
      <point x="754" y="404" type="line"/>
      <point x="552" y="404" type="line"/>
      <point x="552" y="506" type="line"/>
      <point x="790" y="506" type="line"/>
      <point x="790" y="650" type="line"/>
      <point x="274" y="650" type="line"/>
    </contour>
    <contour>
      <point x="130" y="132" type="line"/>
      <point x="468" y="132" type="line"/>
      <point x="468" y="265" type="line"/>
      <point x="130" y="265" type="line"/>
    </contour>
  </outline>
</glyph>
<glyph name="Eth" format="2">
  <advance width="668"/>
  <unicode hex="00D0"/>
  <anchor x="334" y="670" name="aboveUC"/>
  <anchor x="334" y="-20" name="belowLC"/>
  <outline>
    <contour>
      <point x="24" y="294" type="line"/>
      <point x="386" y="294" type="line"/>
      <point x="386" y="374" type="line"/>
      <point x="100" y="374" type="line"/>
      <point x="24" y="368" type="line"/>
    </contour>
    <component base="D" xOffset="26"/>
  </outline>
</glyph>
<glyph name="multiply" format="2">
  <advance width="540"/>
  <unicode hex="00D7"/>
  <outline>
    <contour>
      <point x="132" y="106" type="line"/>
      <point x="270" y="244" type="line"/>
      <point x="408" y="106" type="line"/>
      <point x="493" y="191" type="line"/>
      <point x="355" y="329" type="line"/>
      <point x="493" y="467" type="line"/>
      <point x="408" y="552" type="line"/>
      <point x="270" y="414" type="line"/>
      <point x="132" y="552" type="line"/>
      <point x="47" y="467" type="line"/>
      <point x="185" y="329" type="line"/>
      <point x="47" y="191" type="line"/>
    </contour>
  </outline>
</glyph>
<glyph name="Oslash" format="2">
  <advance width="692"/>
  <unicode hex="00D8"/>
  <anchor x="346" y="670" name="aboveUC"/>
  <anchor x="346" y="0" name="baseLC"/>
  <outline>
    <contour>
      <point x="124" y="-46" type="line"/>
      <point x="676" y="628" type="line"/>
      <point x="588" y="696" type="line"/>
      <point x="36" y="22" type="line"/>
    </contour>
    <component base="O"/>
  </outline>
</glyph>
<glyph name="Hbar" format="2">
  <advance width="722"/>
  <unicode hex="0126"/>
  <outline>
    <contour>
      <point x="22" y="484" type="line"/>
      <point x="700" y="484" type="line"/>
      <point x="700" y="564" type="line"/>
      <point x="98" y="564" type="line"/>
      <point x="22" y="558" type="line"/>
    </contour>
    <component base="H" xOffset="20"/>
  </outline>
</glyph>
<glyph name="Lslash" format="2">
  <advance width="538"/>
  <unicode hex="0141"/>
  <anchor x="269" y="670" name="aboveUC"/>
  <anchor x="269" y="-20" name="belowLC"/>
  <outline>
    <contour>
      <point x="28" y="166" type="line"/>
      <point x="99" y="210" type="line"/>
      <point x="235" y="268" type="line"/>
      <point x="460" y="392" type="line"/>
      <point x="402" y="494" type="line"/>
      <point x="235" y="400" type="line"/>
      <point x="99" y="342" type="line"/>
      <point x="-30" y="268" type="line"/>
    </contour>
    <component base="L" xOffset="8"/>
  </outline>
</glyph>
<glyph name="lslash" format="2">
  <advance width="318"/>
  <unicode hex="0142"/>
  <anchor x="159" y="730" name="aboveUC"/>
  <anchor x="159" y="-20" name="belowLC"/>
  <outline>
    <contour>
      <point x="30" y="232" type="line"/>
      <point x="78" y="260" type="line"/>
      <point x="209" y="320" type="line"/>
      <point x="346" y="394" type="line"/>
      <point x="288" y="500" type="line"/>
      <point x="209" y="456" type="line"/>
      <point x="78" y="396" type="line"/>
      <point x="-28" y="338" type="line"/>
    </contour>
    <component base="l" xOffset="12"/>
  </outline>
</glyph>
<glyph name="OE" format="2">
  <advance width="880"/>
  <unicode hex="0152"/>
  <anchor x="528" y="670" name="aboveUC"/>
  <anchor x="650" y="0" name="baseLC"/>
  <outline>
    <contour>
      <point x="374" y="0" type="curve" smooth="yes"/>
      <point x="826" y="0" type="line"/>
      <point x="826" y="144" type="line"/>
      <point x="580" y="144" type="line"/>
      <point x="580" y="260" type="line"/>
      <point x="780" y="260" type="line"/>
      <point x="780" y="404" type="line"/>
      <point x="580" y="404" type="line"/>
      <point x="580" y="506" type="line"/>
      <point x="816" y="506" type="line"/>
      <point x="816" y="650" type="line"/>
      <point x="384" y="650" type="line" smooth="yes"/>
      <point x="194" y="650"/>
      <point x="44" y="558"/>
      <point x="44" y="328" type="curve" smooth="yes"/>
      <point x="44" y="98"/>
      <point x="194" y="0"/>
    </contour>
    <contour>
      <point x="394" y="138" type="line" smooth="yes"/>
      <point x="297" y="138"/>
      <point x="220" y="174"/>
      <point x="220" y="328" type="curve" smooth="yes"/>
      <point x="220" y="482"/>
      <point x="297" y="512"/>
      <point x="394" y="512" type="curve" smooth="yes"/>
      <point x="408" y="512" type="line"/>
      <point x="408" y="138" type="line"/>
    </contour>
  </outline>
</glyph>
<glyph name="ezh" format="2">
  <advance width="474"/>
  <unicode hex="0292"/>
  <anchor x="210" y="527" name="aboveLC"/>
  <anchor x="237" y="-20" name="belowLC"/>
  <outline>
    <contour>
      <point x="216" y="-188" type="curve" smooth="yes"/>
      <point x="345" y="-188"/>
      <point x="452" y="-104"/>
      <point x="452" y="44" type="curve" smooth="yes"/>
      <point x="452" y="143"/>
      <point x="396" y="218"/>
      <point x="294" y="235" type="curve"/>
      <point x="428" y="408" type="line"/>
      <point x="428" y="500" type="line"/>
      <point x="36" y="500" type="line"/>
      <point x="36" y="366" type="line"/>
      <point x="224" y="366" type="line"/>
      <point x="88" y="188" type="line"/>
      <point x="142" y="108" type="line"/>
      <point x="164" y="116"/>
      <point x="172" y="118"/>
      <point x="198" y="118" type="curve" smooth="yes"/>
      <point x="246" y="118"/>
      <point x="280" y="90"/>
      <point x="280" y="40" type="curve" smooth="yes"/>
      <point x="280" y="-18"/>
      <point x="246" y="-50"/>
      <point x="194" y="-50" type="curve" smooth="yes"/>
      <point x="152" y="-50"/>
      <point x="114" y="-28"/>
      <point x="82" y="0" type="curve"/>
      <point x="6" y="-106" type="line"/>
      <point x="54" y="-152"/>
      <point x="121" y="-188"/>
    </contour>
  </outline>
</glyph>
<glyph name="gravecomb" format="2">
  <unicode hex="0300"/>
  <anchor x="0" y="520" name="_aboveLC"/>
  <anchor x="0" y="520" name="aboveLC"/>
  <outline>
    <contour>
      <point x="-20" y="572" type="line"/>
      <point x="64" y="656" type="line"/>
      <point x="-94" y="844" type="line"/>
      <point x="-210" y="730" type="line"/>
    </contour>
  </outline>
</glyph>
<glyph name="circumflexcomb" format="2">
  <unicode hex="0302"/>
  <anchor x="0" y="520" name="_aboveLC"/>
  <anchor x="0" y="740" name="aboveLC"/>
  <outline>
    <contour>
      <point x="-130" y="558" type="line"/>
      <point x="-2" y="642" type="line"/>
      <point x="2" y="642" type="line"/>
      <point x="130" y="558" type="line"/>
      <point x="194" y="618" type="line"/>
      <point x="88" y="746" type="line"/>
      <point x="-88" y="746" type="line"/>
      <point x="-194" y="618" type="line"/>
    </contour>
  </outline>
</glyph>
<glyph name="tildecomb" format="2">
  <unicode hex="0303"/>
  <anchor x="0" y="520" name="_aboveLC"/>
  <anchor x="0" y="520" name="aboveLC"/>
  <outline>
    <contour>
      <point x="64" y="572" type="curve" smooth="yes"/>
      <point x="144" y="572"/>
      <point x="194" y="617"/>
      <point x="196" y="730" type="curve"/>
      <point x="90" y="736" type="line"/>
      <point x="86" y="700"/>
      <point x="76" y="690"/>
      <point x="60" y="690" type="curve" smooth="yes"/>
      <point x="34" y="690"/>
      <point x="-4" y="746"/>
      <point x="-64" y="746" type="curve" smooth="yes"/>
      <point x="-144" y="746"/>
      <point x="-194" y="701"/>
      <point x="-196" y="588" type="curve"/>
      <point x="-90" y="582" type="line"/>
      <point x="-86" y="618"/>
      <point x="-76" y="628"/>
      <point x="-60" y="628" type="curve" smooth="yes"/>
      <point x="-34" y="628"/>
      <point x="4" y="572"/>
    </contour>
  </outline>
</glyph>
<glyph name="macroncomb" format="2">
  <unicode hex="0304"/>
  <anchor x="0" y="520" name="_aboveLC"/>
  <anchor x="0" y="520" name="aboveLC"/>
  <outline>
    <contour>
      <point x="-154" y="588" type="line"/>
      <point x="154" y="588" type="line"/>
      <point x="154" y="696" type="line"/>
      <point x="-154" y="696" type="line"/>
    </contour>
  </outline>
</glyph>
<glyph name="brevecomb" format="2">
  <unicode hex="0306"/>
  <anchor x="0" y="520" name="_aboveLC"/>
  <anchor x="0" y="520" name="aboveLC"/>
  <outline>
    <contour>
      <point x="0" y="572" type="curve" smooth="yes"/>
      <point x="118" y="572"/>
      <point x="172" y="638"/>
      <point x="174" y="732" type="curve"/>
      <point x="78" y="748" type="line"/>
      <point x="72" y="708"/>
      <point x="48" y="678"/>
      <point x="0" y="678" type="curve" smooth="yes"/>
      <point x="-48" y="678"/>
      <point x="-72" y="708"/>
      <point x="-78" y="748" type="curve"/>
      <point x="-174" y="732" type="line"/>
      <point x="-172" y="638"/>
      <point x="-117" y="572"/>
    </contour>
  </outline>
</glyph>
<glyph name="dotaccentcomb" format="2">
  <unicode hex="0307"/>
  <anchor x="0" y="520" name="_aboveLC"/>
  <anchor x="0" y="730" name="aboveLC"/>
  <outline>
    <contour>
      <point x="0" y="562" type="curve" smooth="yes"/>
      <point x="54" y="562"/>
      <point x="92" y="598"/>
      <point x="92" y="648" type="curve" smooth="yes"/>
      <point x="92" y="698"/>
      <point x="54" y="734"/>
      <point x="0" y="734" type="curve" smooth="yes"/>
      <point x="-54" y="734"/>
      <point x="-92" y="698"/>
      <point x="-92" y="648" type="curve" smooth="yes"/>
      <point x="-92" y="598"/>
      <point x="-54" y="562"/>
    </contour>
  </outline>
</glyph>
<glyph name="dieresiscomb" format="2">
  <unicode hex="0308"/>
  <anchor x="0" y="520" name="_aboveLC"/>
  <anchor x="0" y="730" name="aboveLC"/>
  <outline>
    <contour>
      <point x="114" y="562" type="curve" smooth="yes"/>
      <point x="161" y="562"/>
      <point x="194" y="597"/>
      <point x="194" y="642" type="curve" smooth="yes"/>
      <point x="194" y="687"/>
      <point x="161" y="722"/>
      <point x="114" y="722" type="curve" smooth="yes"/>
      <point x="67" y="722"/>
      <point x="34" y="687"/>
      <point x="34" y="642" type="curve" smooth="yes"/>
      <point x="34" y="597"/>
      <point x="67" y="562"/>
    </contour>
    <contour>
      <point x="-114" y="562" type="curve" smooth="yes"/>
      <point x="-67" y="562"/>
      <point x="-34" y="597"/>
      <point x="-34" y="642" type="curve" smooth="yes"/>
      <point x="-34" y="687"/>
      <point x="-67" y="722"/>
      <point x="-114" y="722" type="curve" smooth="yes"/>
      <point x="-161" y="722"/>
      <point x="-194" y="687"/>
      <point x="-194" y="642" type="curve" smooth="yes"/>
      <point x="-194" y="597"/>
      <point x="-161" y="562"/>
    </contour>
  </outline>
</glyph>
<glyph name="ringcomb" format="2">
  <unicode hex="030A"/>
  <anchor x="0" y="520" name="_aboveLC"/>
  <anchor x="0" y="520" name="aboveLC"/>
  <outline>
    <contour>
      <point x="0" y="568" type="curve" smooth="yes"/>
      <point x="94" y="568"/>
      <point x="140" y="616"/>
      <point x="140" y="674" type="curve" smooth="yes"/>
      <point x="140" y="732"/>
      <point x="94" y="780"/>
      <point x="0" y="780" type="curve" smooth="yes"/>
      <point x="-94" y="780"/>
      <point x="-140" y="732"/>
      <point x="-140" y="674" type="curve" smooth="yes"/>
      <point x="-140" y="616"/>
      <point x="-94" y="568"/>
    </contour>
    <contour>
      <point x="0" y="630" type="curve" smooth="yes"/>
      <point x="-21" y="630"/>
      <point x="-38" y="648"/>
      <point x="-38" y="674" type="curve" smooth="yes"/>
      <point x="-38" y="700"/>
      <point x="-21" y="718"/>
      <point x="0" y="718" type="curve" smooth="yes"/>
      <point x="21" y="718"/>
      <point x="38" y="700"/>
      <point x="38" y="674" type="curve" smooth="yes"/>
      <point x="38" y="648"/>
      <point x="21" y="630"/>
    </contour>
  </outline>
</glyph>
<glyph name="caroncomb" format="2">
  <unicode hex="030C"/>
  <anchor x="0" y="520" name="_aboveLC"/>
  <outline>
    <contour>
      <point x="-88" y="578" type="line"/>
      <point x="88" y="578" type="line"/>
      <point x="194" y="706" type="line"/>
      <point x="130" y="766" type="line"/>
      <point x="2" y="682" type="line"/>
      <point x="-2" y="682" type="line"/>
      <point x="-130" y="766" type="line"/>
      <point x="-194" y="706" type="line"/>
    </contour>
  </outline>
</glyph>
<glyph name="cedillacomb" format="2">
  <unicode hex="0327"/>
  <anchor x="0" y="0" name="_baseLC"/>
  <outline>
    <contour>
      <point x="-108" y="-244" type="line"/>
      <point x="24" y="-240"/>
      <point x="102" y="-208"/>
      <point x="102" y="-136" type="curve" smooth="yes"/>
      <point x="102" y="-94"/>
      <point x="76" y="-72"/>
      <point x="24" y="-60" type="curve"/>
      <point x="52" y="4" type="line"/>
      <point x="-46" y="4" type="line"/>
      <point x="-96" y="-96" type="line"/>
      <point x="-34" y="-104"/>
      <point x="-20" y="-118"/>
      <point x="-20" y="-136" type="curve" smooth="yes"/>
      <point x="-20" y="-164"/>
      <point x="-44" y="-174"/>
      <point x="-120" y="-178" type="curve"/>
    </contour>
  </outline>
</glyph>
<glyph name="sheva-hb" format="2">
  <unicode hex="05B0"/>
  <anchor x="64" y="-16" name="_bottom"/>
  <outline>
    <contour>
      <point x="64" y="-69" type="curve" smooth="yes"/>
      <point x="42" y="-69"/>
      <point x="28" y="-86"/>
      <point x="28" y="-106" type="curve" smooth="yes"/>
      <point x="28" y="-126"/>
      <point x="42" y="-143"/>
      <point x="64" y="-143" type="curve" smooth="yes"/>
      <point x="86" y="-143"/>
      <point x="99" y="-126"/>
      <point x="99" y="-106" type="curve" smooth="yes"/>
      <point x="99" y="-86"/>
      <point x="86" y="-69"/>
    </contour>
    <contour>
      <point x="64" y="-175" type="curve" smooth="yes"/>
      <point x="42" y="-175"/>
      <point x="28" y="-194"/>
      <point x="28" y="-213" type="curve" smooth="yes"/>
      <point x="28" y="-233"/>
      <point x="42" y="-250"/>
      <point x="64" y="-250" type="curve" smooth="yes"/>
      <point x="86" y="-250"/>
      <point x="99" y="-233"/>
      <point x="99" y="-213" type="curve" smooth="yes"/>
      <point x="99" y="-194"/>
      <point x="86" y="-175"/>
    </contour>
  </outline>
</glyph>
<glyph name="hatafsegol-hb" format="2">
  <unicode hex="05B1"/>
  <anchor x="168" y="-16" name="_bottom"/>
  <outline>
    <contour>
      <point x="272" y="-69" type="curve" smooth="yes"/>
      <point x="250" y="-69"/>
      <point x="236" y="-86"/>
      <point x="236" y="-106" type="curve" smooth="yes"/>
      <point x="236" y="-126"/>
      <point x="250" y="-143"/>
      <point x="272" y="-143" type="curve" smooth="yes"/>
      <point x="294" y="-143"/>
      <point x="307" y="-126"/>
      <point x="307" y="-106" type="curve" smooth="yes"/>
      <point x="307" y="-86"/>
      <point x="294" y="-69"/>
    </contour>
    <contour>
      <point x="115" y="-175" type="curve" smooth="yes"/>
      <point x="94" y="-175"/>
      <point x="79" y="-194"/>
      <point x="79" y="-213" type="curve" smooth="yes"/>
      <point x="79" y="-233"/>
      <point x="94" y="-250"/>
      <point x="115" y="-250" type="curve" smooth="yes"/>
      <point x="137" y="-250"/>
      <point x="150" y="-233"/>
      <point x="150" y="-213" type="curve" smooth="yes"/>
      <point x="150" y="-194"/>
      <point x="137" y="-175"/>
    </contour>
    <contour>
      <point x="64" y="-69" type="curve" smooth="yes"/>
      <point x="42" y="-69"/>
      <point x="28" y="-86"/>
      <point x="28" y="-106" type="curve" smooth="yes"/>
      <point x="28" y="-126"/>
      <point x="42" y="-143"/>
      <point x="64" y="-143" type="curve" smooth="yes"/>
      <point x="86" y="-143"/>
      <point x="99" y="-126"/>
      <point x="99" y="-106" type="curve" smooth="yes"/>
      <point x="99" y="-86"/>
      <point x="86" y="-69"/>
    </contour>
    <contour>
      <point x="272" y="-175" type="curve" smooth="yes"/>
      <point x="250" y="-175"/>
      <point x="236" y="-194"/>
      <point x="236" y="-213" type="curve" smooth="yes"/>
      <point x="236" y="-233"/>
      <point x="250" y="-250"/>
      <point x="272" y="-250" type="curve" smooth="yes"/>
      <point x="294" y="-250"/>
      <point x="307" y="-233"/>
      <point x="307" y="-213" type="curve" smooth="yes"/>
      <point x="307" y="-194"/>
      <point x="294" y="-175"/>
    </contour>
    <contour>
      <point x="168" y="-69" type="curve" smooth="yes"/>
      <point x="146" y="-69"/>
      <point x="132" y="-86"/>
      <point x="132" y="-106" type="curve" smooth="yes"/>
      <point x="132" y="-126"/>
      <point x="146" y="-143"/>
      <point x="168" y="-143" type="curve" smooth="yes"/>
      <point x="190" y="-143"/>
      <point x="203" y="-126"/>
      <point x="203" y="-106" type="curve" smooth="yes"/>
      <point x="203" y="-86"/>
      <point x="190" y="-69"/>
    </contour>
  </outline>
</glyph>
<glyph name="hatafpatah-hb" format="2">
  <unicode hex="05B2"/>
  <anchor x="162" y="-16" name="_bottom"/>
  <outline>
    <contour>
      <point x="198" y="-85" type="line"/>
      <point x="28" y="-85" type="line"/>
      <point x="28" y="-126" type="line"/>
      <point x="198" y="-126" type="line"/>
    </contour>
    <contour>
      <point x="261" y="-175" type="curve" smooth="yes"/>
      <point x="239" y="-175"/>
      <point x="225" y="-194"/>
      <point x="225" y="-213" type="curve" smooth="yes"/>
      <point x="225" y="-233"/>
      <point x="239" y="-250"/>
      <point x="261" y="-250" type="curve" smooth="yes"/>
      <point x="282" y="-250"/>
      <point x="296" y="-233"/>
      <point x="296" y="-213" type="curve" smooth="yes"/>
      <point x="296" y="-194"/>
      <point x="282" y="-175"/>
    </contour>
    <contour>
      <point x="261" y="-69" type="curve" smooth="yes"/>
      <point x="239" y="-69"/>
      <point x="225" y="-86"/>
      <point x="225" y="-106" type="curve" smooth="yes"/>
      <point x="225" y="-126"/>
      <point x="239" y="-143"/>
      <point x="261" y="-143" type="curve" smooth="yes"/>
      <point x="282" y="-143"/>
      <point x="296" y="-126"/>
      <point x="296" y="-106" type="curve" smooth="yes"/>
      <point x="296" y="-86"/>
      <point x="282" y="-69"/>
    </contour>
  </outline>
</glyph>
<glyph name="hatafqamats-hb" format="2">
  <unicode hex="05B3"/>
  <anchor x="162" y="-16" name="_bottom"/>
  <outline>
    <contour>
      <point x="198" y="-85" type="line"/>
      <point x="28" y="-85" type="line"/>
      <point x="28" y="-126" type="line"/>
      <point x="94" y="-126" type="line"/>
      <point x="89" y="-226" type="line"/>
      <point x="137" y="-226" type="line"/>
      <point x="131" y="-126" type="line"/>
      <point x="198" y="-126" type="line"/>
    </contour>
    <contour>
      <point x="261" y="-175" type="curve" smooth="yes"/>
      <point x="239" y="-175"/>
      <point x="225" y="-194"/>
      <point x="225" y="-213" type="curve" smooth="yes"/>
      <point x="225" y="-233"/>
      <point x="239" y="-250"/>
      <point x="261" y="-250" type="curve" smooth="yes"/>
      <point x="282" y="-250"/>
      <point x="296" y="-233"/>
      <point x="296" y="-213" type="curve" smooth="yes"/>
      <point x="296" y="-194"/>
      <point x="282" y="-175"/>
    </contour>
    <contour>
      <point x="261" y="-69" type="curve" smooth="yes"/>
      <point x="239" y="-69"/>
      <point x="225" y="-86"/>
      <point x="225" y="-106" type="curve" smooth="yes"/>
      <point x="225" y="-126"/>
      <point x="239" y="-143"/>
      <point x="261" y="-143" type="curve" smooth="yes"/>
      <point x="282" y="-143"/>
      <point x="296" y="-126"/>
      <point x="296" y="-106" type="curve" smooth="yes"/>
      <point x="296" y="-86"/>
      <point x="282" y="-69"/>
    </contour>
  </outline>
</glyph>
<glyph name="patah-hb" format="2">
  <unicode hex="05B7"/>
  <anchor x="113" y="-16" name="_bottom"/>
  <outline>
    <contour>
      <point x="198" y="-69" type="line"/>
      <point x="28" y="-69" type="line"/>
      <point x="28" y="-110" type="line"/>
      <point x="198" y="-110" type="line"/>
    </contour>
  </outline>
</glyph>
<glyph name="qamats-hb" format="2">
  <unicode hex="05B8"/>
  <anchor x="113" y="-16" name="_bottom"/>
  <outline>
    <contour>
      <point x="198" y="-69" type="line"/>
      <point x="28" y="-69" type="line"/>
      <point x="28" y="-110" type="line"/>
      <point x="94" y="-110" type="line"/>
      <point x="89" y="-210" type="line"/>
      <point x="137" y="-210" type="line"/>
      <point x="131" y="-110" type="line"/>
      <point x="198" y="-110" type="line"/>
    </contour>
  </outline>
</glyph>
<glyph name="holam-hb" format="2">
  <unicode hex="05B9"/>
  <anchor x="64" y="372" name="_topleft"/>
  <outline>
    <contour>
      <point x="64" y="594" type="curve" smooth="yes"/>
      <point x="42" y="594"/>
      <point x="28" y="576"/>
      <point x="28" y="557" type="curve" smooth="yes"/>
      <point x="28" y="537"/>
      <point x="42" y="519"/>
      <point x="64" y="519" type="curve" smooth="yes"/>
      <point x="86" y="519"/>
      <point x="99" y="537"/>
      <point x="99" y="557" type="curve" smooth="yes"/>
      <point x="99" y="576"/>
      <point x="86" y="594"/>
    </contour>
  </outline>
</glyph>
<glyph name="qubuts-hb" format="2">
  <unicode hex="05BB"/>
  <anchor x="136" y="-16" name="_bottom"/>
  <outline>
    <contour>
      <point x="208" y="-213" type="curve" smooth="yes"/>
      <point x="186" y="-213"/>
      <point x="172" y="-230"/>
      <point x="172" y="-250" type="curve" smooth="yes"/>
      <point x="172" y="-270"/>
      <point x="186" y="-287"/>
      <point x="208" y="-287" type="curve" smooth="yes"/>
      <point x="230" y="-287"/>
      <point x="243" y="-270"/>
      <point x="243" y="-250" type="curve" smooth="yes"/>
      <point x="243" y="-230"/>
      <point x="230" y="-213"/>
    </contour>
    <contour>
      <point x="64" y="-69" type="curve" smooth="yes"/>
      <point x="42" y="-69"/>
      <point x="28" y="-86"/>
      <point x="28" y="-106" type="curve" smooth="yes"/>
      <point x="28" y="-126"/>
      <point x="42" y="-143"/>
      <point x="64" y="-143" type="curve" smooth="yes"/>
      <point x="86" y="-143"/>
      <point x="99" y="-126"/>
      <point x="99" y="-106" type="curve" smooth="yes"/>
      <point x="99" y="-86"/>
      <point x="86" y="-69"/>
    </contour>
    <contour>
      <point x="136" y="-141" type="curve" smooth="yes"/>
      <point x="114" y="-141"/>
      <point x="100" y="-158"/>
      <point x="100" y="-178" type="curve" smooth="yes"/>
      <point x="100" y="-198"/>
      <point x="114" y="-215"/>
      <point x="136" y="-215" type="curve" smooth="yes"/>
      <point x="158" y="-215"/>
      <point x="171" y="-198"/>
      <point x="171" y="-178" type="curve" smooth="yes"/>
      <point x="171" y="-158"/>
      <point x="158" y="-141"/>
    </contour>
  </outline>
</glyph>
<glyph name="paseq-hb" format="2">
  <advance width="172"/>
  <unicode hex="05C0"/>
  <outline>
    <contour>
      <point x="45" y="-100" type="line"/>
      <point x="127" y="-100" type="line"/>
      <point x="127" y="645" type="line"/>
      <point x="45" y="645" type="line"/>
    </contour>
  </outline>
</glyph>
<glyph name="qamatsqatan-hb" format="2">
  <unicode hex="05C7"/>
  <anchor x="81" y="-16" name="_bottom"/>
  <outline>
    <contour>
      <point x="134" y="-69" type="line"/>
      <point x="28" y="-69" type="line"/>
      <point x="28" y="-110" type="line"/>
      <point x="70" y="-110" type="line"/>
      <point x="57" y="-210" type="line"/>
      <point x="105" y="-210" type="line"/>
      <point x="91" y="-110" type="line"/>
      <point x="134" y="-110" type="line"/>
    </contour>
  </outline>
</glyph>
<glyph name="alef-hb" format="2">
  <advance width="649"/>
  <unicode hex="05D0"/>
  <anchor x="335" y="0" name="bottom"/>
  <anchor x="35" y="0" name="bottomleft"/>
  <anchor x="300" y="30" name="center"/>
  <anchor x="335" y="500" name="top"/>
  <anchor x="35" y="500" name="topleft"/>
  <outline>
    <contour>
      <point x="624" y="0" type="line"/>
      <point x="488" y="206" type="line"/>
      <point x="612" y="579" type="line"/>
      <point x="440" y="579" type="line"/>
      <point x="411" y="459" type="line"/>
      <point x="382" y="363" type="line"/>
      <point x="323" y="455" type="line"/>
      <point x="248" y="579" type="line"/>
      <point x="66" y="579" type="line"/>
      <point x="159" y="425" type="line"/>
      <point x="127" y="343" type="line"/>
      <point x="15" y="0" type="line"/>
      <point x="187" y="0" type="line"/>
      <point x="266" y="263" type="line"/>
      <point x="432" y="0" type="line"/>
    </contour>
  </outline>
</glyph>
<glyph name="bet-hb" format="2">
  <advance width="552"/>
  <unicode hex="05D1"/>
  <anchor x="276" y="0" name="bottom"/>
  <anchor x="22" y="0" name="bottomleft"/>
  <anchor x="156" y="250" name="center"/>
  <anchor x="276" y="500" name="top"/>
  <anchor x="22" y="500" name="topleft"/>
  <outline>
    <contour>
      <point x="281" y="0" type="line"/>
      <point x="463" y="0" type="line"/>
      <point x="463" y="390" type="line"/>
      <point x="463" y="526"/>
      <point x="388" y="579"/>
      <point x="288" y="579" type="curve" smooth="yes"/>
      <point x="30" y="579" type="line"/>
      <point x="30" y="445" type="line"/>
      <point x="236" y="445" type="line" smooth="yes"/>
      <point x="266" y="445"/>
      <point x="281" y="430"/>
      <point x="281" y="400" type="curve"/>
    </contour>
    <contour>
      <point x="30" y="0" type="line"/>
      <point x="527" y="0" type="line"/>
      <point x="527" y="134" type="line"/>
      <point x="30" y="134" type="line"/>
    </contour>
  </outline>
</glyph>
<glyph name="gimel-hb" format="2">
  <advance width="452"/>
  <unicode hex="05D2"/>
  <anchor x="222" y="0" name="bottom"/>
  <anchor x="16" y="0" name="bottomleft"/>
  <anchor x="102" y="270" name="center"/>
  <anchor x="222" y="500" name="top"/>
  <anchor x="56" y="500" name="topleft"/>
  <outline>
    <contour>
      <point x="243" y="0" type="line"/>
      <point x="415" y="0" type="line"/>
      <point x="385" y="233" type="line"/>
      <point x="385" y="421" type="line"/>
      <point x="385" y="514"/>
      <point x="341" y="565"/>
      <point x="258" y="575" type="curve" smooth="yes"/>
      <point x="121" y="592" type="line"/>
      <point x="99" y="460" type="line"/>
      <point x="161" y="452" type="line" smooth="yes"/>
      <point x="188" y="449"/>
      <point x="203" y="441"/>
      <point x="203" y="399" type="curve"/>
      <point x="203" y="237" type="line"/>
    </contour>
    <contour>
      <point x="78" y="-21" type="line"/>
      <point x="186" y="14"/>
      <point x="227" y="79"/>
      <point x="265" y="161" type="curve"/>
      <point x="205" y="251" type="line"/>
      <point x="177" y="198"/>
      <point x="114" y="151"/>
      <point x="12" y="121" type="curve"/>
    </contour>
  </outline>
</glyph>
<glyph name="dalet-hb" format="2">
  <advance width="546"/>
  <unicode hex="05D3"/>
  <anchor x="316" y="0" name="bottom"/>
  <anchor x="20" y="0" name="bottomleft"/>
  <anchor x="126" y="250" name="center"/>
  <anchor x="276" y="500" name="top"/>
  <anchor x="20" y="500" name="topleft"/>
  <outline>
    <contour>
      <point x="239" y="0" type="line"/>
      <point x="421" y="0" type="line"/>
      <point x="421" y="328" type="line" smooth="yes"/>
      <point x="421" y="364"/>
      <point x="424" y="411"/>
      <point x="437" y="445" type="curve"/>
      <point x="516" y="445" type="line"/>
      <point x="516" y="579" type="line"/>
      <point x="25" y="579" type="line"/>
      <point x="25" y="445" type="line"/>
      <point x="268" y="445" type="line"/>
      <point x="251" y="423"/>
      <point x="239" y="382"/>
      <point x="239" y="328" type="curve" smooth="yes"/>
    </contour>
  </outline>
</glyph>
<glyph name="he-hb" format="2">
  <advance width="588"/>
  <unicode hex="05D4"/>
  <anchor x="294" y="0" name="bottom"/>
  <anchor x="20" y="0" name="bottomleft"/>
  <anchor x="294" y="250" name="center"/>
  <anchor x="294" y="500" name="top"/>
  <anchor x="20" y="500" name="topleft"/>
  <outline>
    <contour>
      <point x="371" y="0" type="line"/>
      <point x="553" y="0" type="line"/>
      <point x="553" y="390" type="line"/>
      <point x="553" y="526"/>
      <point x="478" y="579"/>
      <point x="378" y="579" type="curve" smooth="yes"/>
      <point x="50" y="579" type="line"/>
      <point x="50" y="445" type="line"/>
      <point x="326" y="445" type="line" smooth="yes"/>
      <point x="356" y="445"/>
      <point x="371" y="430"/>
      <point x="371" y="400" type="curve"/>
    </contour>
    <contour>
      <point x="42" y="0" type="line"/>
      <point x="224" y="0" type="line"/>
      <point x="224" y="275" type="line"/>
      <point x="224" y="342" type="line"/>
      <point x="67" y="342" type="line"/>
      <point x="42" y="275" type="line"/>
    </contour>
  </outline>
</glyph>
<glyph name="zayin-hb" format="2">
  <advance width="383"/>
  <unicode hex="05D6"/>
  <anchor x="198" y="0" name="bottom"/>
  <anchor x="8" y="0" name="bottomleft"/>
  <anchor x="20" y="250" name="center"/>
  <anchor x="198" y="500" name="top"/>
  <anchor x="8" y="500" name="topleft"/>
  <outline>
    <contour>
      <point x="86" y="0" type="line"/>
      <point x="268" y="0" type="line"/>
      <point x="268" y="328" type="line" smooth="yes"/>
      <point x="268" y="364"/>
      <point x="266" y="411"/>
      <point x="279" y="445" type="curve"/>
      <point x="353" y="445" type="line"/>
      <point x="353" y="579" type="line"/>
      <point x="30" y="579" type="line"/>
      <point x="30" y="445" type="line"/>
      <point x="115" y="445" type="line"/>
      <point x="98" y="423"/>
      <point x="86" y="382"/>
      <point x="86" y="328" type="curve" smooth="yes"/>
    </contour>
  </outline>
</glyph>
<glyph name="yod-hb" format="2">
  <advance width="278"/>
  <unicode hex="05D9"/>
  <anchor x="139" y="0" name="bottom"/>
  <anchor x="20" y="0" name="bottomleft"/>
  <anchor x="-14" y="348" name="center"/>
  <anchor x="139" y="500" name="top"/>
  <anchor x="20" y="500" name="topleft"/>
  <outline>
    <contour>
      <point x="51" y="210" type="line"/>
      <point x="232" y="240" type="line"/>
      <point x="233" y="303" type="line"/>
      <point x="233" y="462" type="line"/>
      <point x="221" y="579" type="line"/>
      <point x="40" y="579" type="line"/>
      <point x="51" y="462" type="line"/>
      <point x="51" y="303" type="line"/>
    </contour>
  </outline>
</glyph>
<glyph name="lamed-hb" format="2">
  <advance width="510"/>
  <unicode hex="05DC"/>
  <anchor x="239" y="0" name="bottom"/>
  <anchor x="30" y="0" name="bottomleft"/>
  <anchor x="119" y="250" name="center"/>
  <anchor x="259" y="500" name="top"/>
  <anchor x="-57" y="500" name="topleft"/>
  <outline>
    <contour>
      <point x="131" y="0" type="line"/>
      <point x="313" y="0" type="line"/>
      <point x="485" y="431" type="line"/>
      <point x="485" y="579" type="line"/>
      <point x="25" y="579" type="line"/>
      <point x="25" y="445" type="line"/>
      <point x="303" y="445" type="line"/>
    </contour>
    <contour>
      <point x="25" y="445" type="line"/>
      <point x="187" y="445" type="line"/>
      <point x="187" y="717" type="line"/>
      <point x="25" y="717" type="line"/>
    </contour>
  </outline>
</glyph>
<glyph name="finalmem-hb" format="2">
  <advance width="598"/>
  <unicode hex="05DD"/>
  <anchor x="299" y="0" name="bottom"/>
  <anchor x="20" y="0" name="bottomleft"/>
  <anchor x="299" y="250" name="center"/>
  <anchor x="299" y="500" name="top"/>
  <anchor x="20" y="500" name="topleft"/>
  <outline>
    <contour>
      <point x="376" y="0" type="line"/>
      <point x="558" y="0" type="line"/>
      <point x="558" y="111" type="line"/>
      <point x="558" y="390" type="line"/>
      <point x="558" y="526"/>
      <point x="483" y="579"/>
      <point x="383" y="579" type="curve" smooth="yes"/>
      <point x="157" y="579" type="line"/>
      <point x="157" y="445" type="line"/>
      <point x="331" y="445" type="line" smooth="yes"/>
      <point x="361" y="445"/>
      <point x="376" y="430"/>
      <point x="376" y="400" type="curve"/>
    </contour>
    <contour>
      <point x="77" y="0" type="line"/>
      <point x="492" y="0" type="line"/>
      <point x="492" y="134" type="line"/>
      <point x="77" y="134" type="line"/>
    </contour>
    <contour>
      <point x="40" y="0" type="line"/>
      <point x="222" y="0" type="line"/>
      <point x="222" y="462" type="line"/>
      <point x="222" y="579" type="line"/>
      <point x="40" y="579" type="line"/>
      <point x="40" y="472" type="line"/>
    </contour>
  </outline>
</glyph>
<glyph name="mem-hb" format="2">
  <advance width="662"/>
  <unicode hex="05DE"/>
  <anchor x="361" y="0" name="bottom"/>
  <anchor x="25" y="0" name="bottomleft"/>
  <anchor x="353" y="250" name="center"/>
  <anchor x="341" y="500" name="top"/>
  <anchor x="25" y="500" name="topleft"/>
  <outline>
    <contour>
      <point x="277" y="-1" type="line"/>
      <point x="501" y="-55"/>
      <point x="630" y="72"/>
      <point x="630" y="286" type="curve" smooth="yes"/>
      <point x="630" y="481"/>
      <point x="558" y="591"/>
      <point x="404" y="591" type="curve" smooth="yes"/>
      <point x="330" y="591"/>
      <point x="267" y="548"/>
      <point x="240" y="445" type="curve"/>
      <point x="278" y="373" type="line"/>
      <point x="284" y="426"/>
      <point x="324" y="449"/>
      <point x="364" y="449" type="curve" smooth="yes"/>
      <point x="431" y="449"/>
      <point x="458" y="397"/>
      <point x="458" y="286" type="curve" smooth="yes"/>
      <point x="458" y="171"/>
      <point x="432" y="102"/>
      <point x="293" y="133" type="curve"/>
    </contour>
    <contour>
      <point x="39" y="0" type="line"/>
      <point x="221" y="0" type="line"/>
      <point x="278" y="373" type="line"/>
      <point x="214" y="579" type="line"/>
      <point x="25" y="579" type="line"/>
      <point x="106" y="383" type="line"/>
    </contour>
  </outline>
</glyph>
<glyph name="nun-hb" format="2">
  <advance width="388"/>
  <unicode hex="05E0"/>
  <anchor x="194" y="0" name="bottom"/>
  <anchor x="20" y="0" name="bottomleft"/>
  <anchor x="84" y="250" name="center"/>
  <anchor x="194" y="500" name="top"/>
  <anchor x="20" y="500" name="topleft"/>
  <outline>
    <contour>
      <point x="33" y="0" type="line"/>
      <point x="346" y="0" type="line"/>
      <point x="346" y="403" type="line" smooth="yes"/>
      <point x="346" y="496"/>
      <point x="302" y="564"/>
      <point x="219" y="574" type="curve" smooth="yes"/>
      <point x="72" y="592" type="line"/>
      <point x="50" y="460" type="line"/>
      <point x="122" y="451" type="line" smooth="yes"/>
      <point x="149" y="448"/>
      <point x="164" y="440"/>
      <point x="164" y="398" type="curve" smooth="yes"/>
      <point x="164" y="134" type="line"/>
      <point x="33" y="134" type="line"/>
    </contour>
  </outline>
</glyph>
<glyph name="samekh-hb" format="2">
  <advance width="627"/>
  <unicode hex="05E1"/>
  <anchor x="317" y="0" name="bottom"/>
  <anchor x="24" y="0" name="bottomleft"/>
  <anchor x="321" y="260" name="center"/>
  <anchor x="317" y="500" name="top"/>
  <anchor x="24" y="500" name="topleft"/>
  <outline>
    <contour>
      <point x="104" y="-10" type="line"/>
      <point x="411" y="-1"/>
      <point x="589" y="87"/>
      <point x="582" y="334" type="curve" smooth="yes"/>
      <point x="581" y="369" type="line" smooth="yes"/>
      <point x="577" y="500"/>
      <point x="500" y="579"/>
      <point x="360" y="579" type="curve" smooth="yes"/>
      <point x="35" y="579" type="line"/>
      <point x="52" y="445" type="line"/>
      <point x="347" y="445" type="line" smooth="yes"/>
      <point x="378" y="445"/>
      <point x="402" y="420"/>
      <point x="402" y="371" type="curve" smooth="yes"/>
      <point x="402" y="338" type="line"/>
      <point x="404" y="231"/>
      <point x="410" y="160"/>
      <point x="263" y="150" type="curve"/>
      <point x="225" y="523" type="line"/>
      <point x="52" y="445" type="line"/>
    </contour>
  </outline>
</glyph>
<glyph name="ayin-hb" format="2">
  <advance width="601"/>
  <unicode hex="05E2"/>
  <anchor x="301" y="0" name="bottom"/>
  <anchor x="20" y="0" name="bottomleft"/>
  <anchor x="325" y="350" name="center"/>
  <anchor x="301" y="500" name="top"/>
  <anchor x="20" y="500" name="topleft"/>
  <outline>
    <contour>
      <point x="22" y="-44" type="line"/>
      <point x="262" y="2" type="line" smooth="yes"/>
      <point x="567" y="63"/>
      <point x="564" y="276"/>
      <point x="565" y="579" type="curve"/>
      <point x="385" y="579" type="line"/>
      <point x="384" y="308"/>
      <point x="404" y="173"/>
      <point x="259" y="146" type="curve" smooth="yes"/>
      <point x="-3" y="97" type="line"/>
    </contour>
    <contour>
      <point x="150" y="106" type="line" smooth="yes"/>
      <point x="323" y="106" type="line"/>
      <point x="221" y="579" type="line"/>
      <point x="39" y="579" type="line"/>
    </contour>
  </outline>
</glyph>
<glyph name="pe-hb" format="2">
  <advance width="566"/>
  <unicode hex="05E4"/>
  <anchor x="281" y="0" name="bottom"/>
  <anchor x="20" y="0" name="bottomleft"/>
  <anchor x="299" y="240" name="center"/>
  <anchor x="281" y="500" name="top"/>
  <anchor x="20" y="500" name="topleft"/>
  <outline>
    <contour>
      <point x="40" y="0" type="line"/>
      <point x="309" y="0" type="line" smooth="yes"/>
      <point x="456" y="0"/>
      <point x="541" y="109"/>
      <point x="541" y="259" type="curve" smooth="yes"/>
      <point x="541" y="320" type="line" smooth="yes"/>
      <point x="541" y="470"/>
      <point x="456" y="579"/>
      <point x="309" y="579" type="curve" smooth="yes"/>
      <point x="79" y="579" type="line"/>
      <point x="38" y="392" type="line"/>
      <point x="22" y="292"/>
      <point x="62" y="204"/>
      <point x="224" y="206" type="curve"/>
      <point x="250" y="316" type="line"/>
      <point x="205" y="326"/>
      <point x="190" y="342"/>
      <point x="196" y="375" type="curve"/>
      <point x="210" y="445" type="line"/>
      <point x="264" y="445" type="line" smooth="yes"/>
      <point x="330" y="445"/>
      <point x="359" y="388"/>
      <point x="359" y="330" type="curve" smooth="yes"/>
      <point x="359" y="249" type="line" smooth="yes"/>
      <point x="359" y="191"/>
      <point x="330" y="134"/>
      <point x="264" y="134" type="curve" smooth="yes"/>
      <point x="40" y="134" type="line"/>
    </contour>
  </outline>
</glyph>
<glyph name="finaltsadi-hb" format="2">
  <advance width="570"/>
  <unicode hex="05E5"/>
  <anchor x="285" y="0" name="bottom"/>
  <anchor x="20" y="0" name="bottomleft"/>
  <anchor x="285" y="250" name="center"/>
  <anchor x="285" y="500" name="top"/>
  <anchor x="20" y="500" name="topleft"/>
  <outline>
    <contour>
      <point x="263" y="-200" type="line"/>
      <point x="435" y="-200" type="line"/>
      <point x="197" y="579" type="line"/>
      <point x="25" y="579" type="line"/>
    </contour>
    <contour>
      <point x="302" y="25" type="line"/>
      <point x="550" y="579" type="line"/>
      <point x="379" y="579" type="line"/>
      <point x="196" y="159" type="line"/>
    </contour>
  </outline>
</glyph>
<glyph name="shin-hb" format="2">
  <advance width="705"/>
  <unicode hex="05E9"/>
  <anchor x="356" y="0" name="bottom"/>
  <anchor x="27" y="0" name="bottomleft"/>
  <anchor x="379" y="190" name="center"/>
  <anchor x="356" y="500" name="top"/>
  <anchor x="107" y="500" name="topleft"/>
  <anchor x="584" y="500" name="topright"/>
  <outline>
    <contour>
      <point x="113" y="-10" type="line"/>
      <point x="512" y="-25"/>
      <point x="677" y="127"/>
      <point x="675" y="399" type="curve" smooth="yes"/>
      <point x="674" y="579" type="line"/>
      <point x="492" y="579" type="line"/>
      <point x="494" y="389" type="line" smooth="yes"/>
      <point x="495" y="261"/>
      <point x="454" y="150"/>
      <point x="259" y="138" type="curve"/>
      <point x="207" y="579" type="line"/>
      <point x="35" y="579" type="line"/>
    </contour>
    <contour>
      <point x="225" y="224" type="line"/>
      <point x="401" y="267"/>
      <point x="442" y="375"/>
      <point x="442" y="514" type="curve" smooth="yes"/>
      <point x="442" y="579" type="line"/>
      <point x="270" y="579" type="line" smooth="yes"/>
      <point x="271" y="510" type="line" smooth="yes"/>
      <point x="273" y="393"/>
      <point x="266" y="345"/>
      <point x="182" y="335" type="curve"/>
    </contour>
  </outline>
</glyph>
<glyph name="tav-hb" format="2">
  <advance width="651"/>
  <unicode hex="05EA"/>
  <anchor x="342" y="0" name="bottom"/>
  <anchor x="14" y="0" name="bottomleft"/>
  <anchor x="351" y="250" name="center"/>
  <anchor x="323" y="500" name="top"/>
  <anchor x="84" y="500" name="topleft"/>
  <outline>
    <contour>
      <point x="30" y="-19" type="line"/>
      <point x="201" y="-3"/>
      <point x="279" y="45"/>
      <point x="279" y="218" type="curve" smooth="yes"/>
      <point x="279" y="445" type="line"/>
      <point x="379" y="445" type="line" smooth="yes"/>
      <point x="409" y="445"/>
      <point x="424" y="430"/>
      <point x="424" y="400" type="curve" smooth="yes"/>
      <point x="424" y="0" type="line"/>
      <point x="606" y="0" type="line"/>
      <point x="606" y="390" type="line" smooth="yes"/>
      <point x="606" y="526"/>
      <point x="531" y="579"/>
      <point x="431" y="579" type="curve" smooth="yes"/>
      <point x="97" y="579" type="line"/>
      <point x="97" y="194" type="line" smooth="yes"/>
      <point x="97" y="130"/>
      <point x="90" y="112"/>
      <point x="15" y="103" type="curve"/>
    </contour>
  </outline>
</glyph>
<glyph name="endash" format="2">
  <advance width="480"/>
  <unicode hex="2013"/>
  <outline>
    <contour>
      <point x="44" y="200" type="line"/>
      <point x="436" y="200" type="line"/>
      <point x="436" y="308" type="line"/>
      <point x="44" y="308" type="line"/>
    </contour>
  </outline>
</glyph>
<glyph name="lefttorightoverride" format="2">
  <unicode hex="202D"/>
  <outline>
    <contour>
      <point x="-31" y="767" type="line"/>
      <point x="73" y="875" type="line"/>
      <point x="-31" y="984" type="line"/>
      <point x="-57" y="957" type="line"/>
      <point x="4" y="894" type="line"/>
      <point x="-156" y="894" type="line"/>
      <point x="-156" y="858" type="line"/>
      <point x="6" y="858" type="line"/>
      <point x="-57" y="792" type="line"/>
    </contour>
    <contour>
      <point x="66" y="767" type="line"/>
      <point x="171" y="875" type="line"/>
      <point x="66" y="984" type="line"/>
      <point x="41" y="957" type="line"/>
      <point x="123" y="875" type="line"/>
      <point x="41" y="792" type="line"/>
    </contour>
  </outline>
</glyph>
<glyph name="foursuperior" format="2">
  <advance width="374"/>
  <unicode hex="2074"/>
  <outline>
    <contour>
      <point x="206" y="400" type="line"/>
      <point x="316" y="400" type="line"/>
      <point x="316" y="790" type="line"/>
      <point x="158" y="790" type="line"/>
      <point x="26" y="542" type="line"/>
      <point x="26" y="480" type="line"/>
      <point x="374" y="480" type="line"/>
      <point x="374" y="560" type="line"/>
      <point x="138" y="560" type="line"/>
      <point x="172" y="634" type="line"/>
      <point x="208" y="710" type="line"/>
      <point x="212" y="710" type="line"/>
      <point x="206" y="590" type="line"/>
    </contour>
  </outline>
</glyph>
<glyph name="product" format="2">
  <advance width="724"/>
  <unicode hex="220F"/>
  <outline>
    <contour>
      <point x="76" y="-120" type="line"/>
      <point x="248" y="-120" type="line"/>
      <point x="248" y="484" type="line"/>
      <point x="476" y="484" type="line"/>
      <point x="476" y="-120" type="line"/>
      <point x="648" y="-120" type="line"/>
      <point x="648" y="634" type="line"/>
      <point x="76" y="634" type="line"/>
    </contour>
  </outline>
</glyph>
<glyph name="ZWJ" format="2">
  <outline>
    <contour>
      <point x="-150" y="785" type="line"/>
      <point x="-116" y="785" type="line"/>
      <point x="-116" y="858" type="line"/>
      <point x="117" y="858" type="line"/>
      <point x="117" y="785" type="line"/>
      <point x="151" y="785" type="line"/>
      <point x="151" y="894" type="line"/>
      <point x="-150" y="894" type="line"/>
    </contour>
  </outline>
</glyph>
<glyph name="alphalatin" format="2">
  <advance width="580"/>
  <anchor x="306" y="522" name="aboveLC"/>
  <anchor x="290" y="0" name="baseLC"/>
  <anchor x="308" y="-22" name="belowLC"/>
  <outline>
    <contour>
      <point x="240" y="-12" type="curve" smooth="yes"/>
      <point x="286" y="-12"/>
      <point x="341" y="16"/>
      <point x="372" y="52" type="curve"/>
      <point x="376" y="52" type="line"/>
      <point x="394" y="12"/>
      <point x="432" y="-12"/>
      <point x="484" y="-12" type="curve" smooth="yes"/>
      <point x="516" y="-12"/>
      <point x="534" y="-8"/>
      <point x="550" y="0" type="curve"/>
      <point x="554" y="128" type="line"/>
      <point x="548" y="126"/>
      <point x="544" y="126"/>
      <point x="542" y="126" type="curve" smooth="yes"/>
      <point x="530" y="126"/>
      <point x="522" y="134"/>
      <point x="522" y="160" type="curve" smooth="yes"/>
      <point x="522" y="500" type="line"/>
      <point x="388" y="500" type="line"/>
      <point x="374" y="450" type="line"/>
      <point x="370" y="450" type="line"/>
      <point x="332" y="494"/>
      <point x="292" y="512"/>
      <point x="244" y="512" type="curve" smooth="yes"/>
      <point x="142" y="512"/>
      <point x="36" y="414"/>
      <point x="36" y="250" type="curve" smooth="yes"/>
      <point x="36" y="88"/>
      <point x="116" y="-12"/>
    </contour>
    <contour>
      <point x="286" y="128" type="curve" smooth="yes"/>
      <point x="240" y="128"/>
      <point x="212" y="162"/>
      <point x="212" y="252" type="curve" smooth="yes"/>
      <point x="212" y="340"/>
      <point x="246" y="372"/>
      <point x="282" y="372" type="curve" smooth="yes"/>
      <point x="304" y="372"/>
      <point x="330" y="366"/>
      <point x="350" y="348" type="curve"/>
      <point x="350" y="164" type="line"/>
      <point x="332" y="136"/>
      <point x="312" y="128"/>
    </contour>
  </outline>
</glyph>
<glyph name="bracketright.lat" format="2">
  <advance width="360"/>
  <outline>
    <contour>
      <point x="52" y="-152" type="line"/>
      <point x="276" y="-152" type="line"/>
      <point x="276" y="708" type="line"/>
      <point x="52" y="708" type="line"/>
      <point x="52" y="618" type="line"/>
      <point x="148" y="618" type="line"/>
      <point x="148" y="-62" type="line"/>
      <point x="52" y="-62" type="line"/>
    </contour>
  </outline>
</glyph>
<glyph name="bullet.lat" format="2">
  <advance width="360"/>
  <outline>
    <contour>
      <point x="180" y="116" type="curve" smooth="yes"/>
      <point x="260" y="116"/>
      <point x="320" y="180"/>
      <point x="320" y="262" type="curve" smooth="yes"/>
      <point x="320" y="344"/>
      <point x="260" y="408"/>
      <point x="180" y="408" type="curve" smooth="yes"/>
      <point x="100" y="408"/>
      <point x="40" y="344"/>
      <point x="40" y="262" type="curve" smooth="yes"/>
      <point x="40" y="180"/>
      <point x="100" y="116"/>
    </contour>
  </outline>
</glyph>
<glyph name="circumflexcomb.cap" format="2">
  <anchor x="0" y="670" name="_aboveUC"/>
  <outline>
    <contour>
      <point x="-104" y="680" type="line"/>
      <point x="-2" y="760" type="line"/>
      <point x="2" y="760" type="line"/>
      <point x="104" y="680" type="line"/>
      <point x="178" y="724" type="line"/>
      <point x="94" y="834" type="line"/>
      <point x="-94" y="834" type="line"/>
      <point x="-178" y="724" type="line"/>
    </contour>
  </outline>
</glyph>
<glyph name="dotaccentcomb.cap" format="2">
  <anchor x="0" y="670" name="_aboveUC"/>
  <outline>
    <contour>
      <point x="0" y="696" type="curve" smooth="yes"/>
      <point x="56" y="696"/>
      <point x="96" y="732"/>
      <point x="96" y="782" type="curve" smooth="yes"/>
      <point x="96" y="832"/>
      <point x="56" y="868"/>
      <point x="0" y="868" type="curve" smooth="yes"/>
      <point x="-56" y="868"/>
      <point x="-96" y="832"/>
      <point x="-96" y="782" type="curve" smooth="yes"/>
      <point x="-96" y="732"/>
      <point x="-56" y="696"/>
    </contour>
  </outline>
</glyph>
<glyph name="eight.pnumheb" format="2">
  <advance width="500"/>
  <outline>
    <contour>
      <point x="248" y="-12" type="curve" smooth="yes"/>
      <point x="377" y="-12"/>
      <point x="468" y="58"/>
      <point x="468" y="158" type="curve" smooth="yes"/>
      <point x="468" y="227"/>
      <point x="434" y="279"/>
      <point x="367" y="315" type="curve"/>
      <point x="415" y="346"/>
      <point x="442" y="392"/>
      <point x="442" y="441" type="curve" smooth="yes"/>
      <point x="442" y="542"/>
      <point x="367" y="609"/>
      <point x="254" y="609" type="curve" smooth="yes"/>
      <point x="132" y="609"/>
      <point x="52" y="541"/>
      <point x="52" y="437" type="curve" smooth="yes"/>
      <point x="52" y="382"/>
      <point x="77" y="338"/>
      <point x="130" y="296" type="curve"/>
      <point x="65" y="259"/>
      <point x="34" y="215"/>
      <point x="34" y="154" type="curve" smooth="yes"/>
      <point x="34" y="57"/>
      <point x="123" y="-12"/>
    </contour>
    <contour>
      <point x="252" y="106" type="curve" smooth="yes"/>
      <point x="208" y="106"/>
      <point x="179" y="132"/>
      <point x="179" y="173" type="curve" smooth="yes"/>
      <point x="179" y="198"/>
      <point x="190" y="226"/>
      <point x="206" y="248" type="curve"/>
      <point x="274" y="219"/>
      <point x="312" y="203"/>
      <point x="312" y="163" type="curve" smooth="yes"/>
      <point x="312" y="126"/>
      <point x="290" y="106"/>
    </contour>
    <contour>
      <point x="282" y="360" type="curve"/>
      <point x="221" y="385"/>
      <point x="200" y="405"/>
      <point x="200" y="437" type="curve" smooth="yes"/>
      <point x="200" y="471"/>
      <point x="219" y="491"/>
      <point x="250" y="491" type="curve" smooth="yes"/>
      <point x="285" y="491"/>
      <point x="306" y="468"/>
      <point x="306" y="430" type="curve" smooth="yes"/>
      <point x="306" y="408"/>
      <point x="299" y="385"/>
    </contour>
  </outline>
</glyph>
<glyph name="five.pnumheb" format="2">
  <advance width="500"/>
  <outline>
    <contour>
      <point x="242" y="-12" type="curve" smooth="yes"/>
      <point x="375" y="-12"/>
      <point x="470" y="76"/>
      <point x="470" y="201" type="curve" smooth="yes"/>
      <point x="470" y="315"/>
      <point x="394" y="387"/>
      <point x="276" y="387" type="curve" smooth="yes"/>
      <point x="258" y="387"/>
      <point x="242" y="385"/>
      <point x="224" y="380" type="curve"/>
      <point x="231" y="456" type="line"/>
      <point x="444" y="456" type="line"/>
      <point x="444" y="598" type="line"/>
      <point x="86" y="598" type="line"/>
      <point x="71" y="288" type="line"/>
      <point x="142" y="242" type="line"/>
      <point x="182" y="265"/>
      <point x="198" y="269"/>
      <point x="226" y="269" type="curve" smooth="yes"/>
      <point x="274" y="269"/>
      <point x="302" y="241"/>
      <point x="302" y="197" type="curve" smooth="yes"/>
      <point x="302" y="149"/>
      <point x="274" y="125"/>
      <point x="218" y="125" type="curve" smooth="yes"/>
      <point x="176" y="125"/>
      <point x="136" y="148"/>
      <point x="102" y="179" type="curve"/>
      <point x="96" y="178" type="line"/>
      <point x="25" y="78" type="line"/>
      <point x="25" y="73" type="line"/>
      <point x="82" y="16"/>
      <point x="154" y="-12"/>
    </contour>
  </outline>
</glyph>
<glyph name="fraction.lat" format="2">
  <advance width="100"/>
  <outline>
    <contour>
      <point x="-172" y="-12" type="line"/>
      <point x="-76" y="-12" type="line"/>
      <point x="272" y="662" type="line"/>
      <point x="176" y="662" type="line"/>
    </contour>
  </outline>
</glyph>
<glyph name="guilsinglright.lat" format="2">
  <advance width="300"/>
  <outline>
    <contour>
      <point x="116" y="52" type="line"/>
      <point x="250" y="192" type="line"/>
      <point x="250" y="312" type="line"/>
      <point x="116" y="452" type="line"/>
      <point x="54" y="402" type="line"/>
      <point x="162" y="252" type="line"/>
      <point x="54" y="102" type="line"/>
    </contour>
  </outline>
</glyph>
<glyph name="hungarumlautcomb.cap" format="2">
  <anchor x="0" y="670" name="_aboveUC"/>
  <outline>
    <contour>
      <point x="134" y="690" type="line"/>
      <point x="262" y="834" type="line"/>
      <point x="154" y="894" type="line"/>
      <point x="50" y="730" type="line"/>
    </contour>
    <contour>
      <point x="-64" y="690" type="line"/>
      <point x="64" y="834" type="line"/>
      <point x="-44" y="894" type="line"/>
      <point x="-148" y="730" type="line"/>
    </contour>
  </outline>
</glyph>
<glyph name="macroncomb.cap" format="2">
  <anchor x="0" y="670" name="_aboveUC"/>
  <outline>
    <contour>
      <point x="-158" y="716" type="line"/>
      <point x="158" y="716" type="line"/>
      <point x="158" y="824" type="line"/>
      <point x="-158" y="824" type="line"/>
    </contour>
  </outline>
</glyph>
<glyph name="nine.pnumheb" format="2">
  <advance width="500"/>
  <outline>
    <contour>
      <point x="220" y="-12" type="curve" smooth="yes"/>
      <point x="348" y="-12"/>
      <point x="468" y="92"/>
      <point x="468" y="309" type="curve" smooth="yes"/>
      <point x="468" y="525"/>
      <point x="348" y="609"/>
      <point x="233" y="609" type="curve" smooth="yes"/>
      <point x="110" y="609"/>
      <point x="24" y="524"/>
      <point x="24" y="404" type="curve" smooth="yes"/>
      <point x="24" y="286"/>
      <point x="92" y="217"/>
      <point x="207" y="217" type="curve" smooth="yes"/>
      <point x="242" y="217"/>
      <point x="299" y="242"/>
      <point x="327" y="286" type="curve"/>
      <point x="328" y="288" type="line"/>
      <point x="321" y="389" type="line"/>
      <point x="313" y="391" type="line"/>
      <point x="295" y="356"/>
      <point x="269" y="337"/>
      <point x="239" y="337" type="curve" smooth="yes"/>
      <point x="206" y="337"/>
      <point x="177" y="350"/>
      <point x="177" y="404" type="curve" smooth="yes"/>
      <point x="177" y="455"/>
      <point x="198" y="482"/>
      <point x="237" y="482" type="curve" smooth="yes"/>
      <point x="288" y="482"/>
      <point x="315" y="421"/>
      <point x="315" y="309" type="curve" smooth="yes"/>
      <point x="315" y="186"/>
      <point x="280" y="125"/>
      <point x="209" y="125" type="curve" smooth="yes"/>
      <point x="179" y="125"/>
      <point x="143" y="142"/>
      <point x="122" y="164" type="curve"/>
      <point x="116" y="164" type="line"/>
      <point x="33" y="70" type="line"/>
      <point x="33" y="64" type="line"/>
      <point x="81" y="15"/>
      <point x="147" y="-12"/>
    </contour>
  </outline>
</glyph>
<glyph name="one.pnumheb" format="2">
  <advance width="500"/>
  <outline>
    <contour>
      <point x="183" y="121" type="line"/>
      <point x="351" y="121" type="line"/>
      <point x="351" y="598" type="line"/>
      <point x="230" y="598" type="line"/>
      <point x="228" y="597" type="line"/>
      <point x="181" y="569"/>
      <point x="138" y="553"/>
      <point x="74" y="541" type="curve"/>
      <point x="71" y="537" type="line"/>
      <point x="71" y="434" type="line"/>
      <point x="183" y="434" type="line"/>
    </contour>
    <contour>
      <point x="458" y="137" type="line"/>
      <point x="56" y="137" type="line"/>
      <point x="56" y="0" type="line"/>
      <point x="458" y="0" type="line"/>
    </contour>
  </outline>
</glyph>
<glyph name="one.sups" format="2">
  <advance width="306"/>
  <outline>
    <contour>
      <point x="135" y="400" type="line"/>
      <point x="261" y="400" type="line"/>
      <point x="261" y="790" type="line"/>
      <point x="163" y="790" type="line"/>
      <point x="127" y="766"/>
      <point x="103" y="754"/>
      <point x="45" y="746" type="curve"/>
      <point x="45" y="670" type="line"/>
      <point x="135" y="670" type="line"/>
    </contour>
  </outline>
</glyph>
<glyph name="periodcentered.lat" format="2">
  <advance width="320"/>
  <outline>
    <contour>
      <point x="160" y="216" type="curve" smooth="yes"/>
      <point x="218" y="216"/>
      <point x="260" y="262"/>
      <point x="260" y="320" type="curve" smooth="yes"/>
      <point x="260" y="378"/>
      <point x="218" y="424"/>
      <point x="160" y="424" type="curve" smooth="yes"/>
      <point x="102" y="424"/>
      <point x="60" y="378"/>
      <point x="60" y="320" type="curve" smooth="yes"/>
      <point x="60" y="262"/>
      <point x="102" y="216"/>
    </contour>
  </outline>
</glyph>
<glyph name="quotedbl.lat" format="2">
  <advance width="580"/>
  <outline>
    <contour>
      <point x="114" y="324" type="line"/>
      <point x="206" y="324" type="line"/>
      <point x="240" y="536" type="line"/>
      <point x="246" y="684" type="line"/>
      <point x="74" y="684" type="line"/>
      <point x="80" y="536" type="line"/>
    </contour>
    <contour>
      <point x="374" y="324" type="line"/>
      <point x="466" y="324" type="line"/>
      <point x="500" y="536" type="line"/>
      <point x="506" y="684" type="line"/>
      <point x="334" y="684" type="line"/>
      <point x="340" y="536" type="line"/>
    </contour>
  </outline>
</glyph>
<glyph name="quotedblbase.lat" format="2">
  <advance width="580"/>
  <outline>
    <contour>
      <point x="370" y="-178" type="line"/>
      <point x="476" y="-128"/>
      <point x="526" y="-50"/>
      <point x="526" y="50" type="curve" smooth="yes"/>
      <point x="526" y="142"/>
      <point x="490" y="196"/>
      <point x="420" y="196" type="curve" smooth="yes"/>
      <point x="370" y="196"/>
      <point x="334" y="160"/>
      <point x="334" y="104" type="curve" smooth="yes"/>
      <point x="334" y="54"/>
      <point x="372" y="22"/>
      <point x="420" y="22" type="curve" smooth="yes"/>
      <point x="442" y="22"/>
      <point x="464" y="33"/>
      <point x="480" y="45" type="curve"/>
      <point x="429" y="118" type="line"/>
      <point x="430" y="24" type="line"/>
      <point x="430" y="-36"/>
      <point x="398" y="-76"/>
      <point x="334" y="-104" type="curve"/>
    </contour>
    <contour>
      <point x="110" y="-178" type="line"/>
      <point x="216" y="-128"/>
      <point x="266" y="-50"/>
      <point x="266" y="50" type="curve" smooth="yes"/>
      <point x="266" y="142"/>
      <point x="230" y="196"/>
      <point x="160" y="196" type="curve" smooth="yes"/>
      <point x="110" y="196"/>
      <point x="74" y="160"/>
      <point x="74" y="104" type="curve" smooth="yes"/>
      <point x="74" y="54"/>
      <point x="112" y="22"/>
      <point x="160" y="22" type="curve" smooth="yes"/>
      <point x="182" y="22"/>
      <point x="204" y="33"/>
      <point x="220" y="45" type="curve"/>
      <point x="169" y="118" type="line"/>
      <point x="170" y="24" type="line"/>
      <point x="170" y="-36"/>
      <point x="138" y="-76"/>
      <point x="74" y="-104" type="curve"/>
    </contour>
  </outline>
</glyph>
<glyph name="quotesinglbase.lat" format="2">
  <advance width="320"/>
  <outline>
    <contour>
      <point x="110" y="-178" type="line"/>
      <point x="216" y="-128"/>
      <point x="266" y="-50"/>
      <point x="266" y="50" type="curve" smooth="yes"/>
      <point x="266" y="142"/>
      <point x="230" y="196"/>
      <point x="160" y="196" type="curve" smooth="yes"/>
      <point x="110" y="196"/>
      <point x="74" y="160"/>
      <point x="74" y="104" type="curve" smooth="yes"/>
      <point x="74" y="54"/>
      <point x="112" y="22"/>
      <point x="160" y="22" type="curve" smooth="yes"/>
      <point x="182" y="22"/>
      <point x="204" y="33"/>
      <point x="220" y="45" type="curve"/>
      <point x="169" y="118" type="line"/>
      <point x="170" y="24" type="line"/>
      <point x="170" y="-36"/>
      <point x="138" y="-76"/>
      <point x="74" y="-104" type="curve"/>
    </contour>
  </outline>
</glyph>
<glyph name="ringcomb.cap" format="2">
  <anchor x="0" y="670" name="_aboveUC"/>
  <outline>
    <contour>
      <point x="0" y="696" type="curve" smooth="yes"/>
      <point x="72" y="696"/>
      <point x="120" y="736"/>
      <point x="120" y="798" type="curve" smooth="yes"/>
      <point x="120" y="860"/>
      <point x="72" y="900"/>
      <point x="0" y="900" type="curve" smooth="yes"/>
      <point x="-72" y="900"/>
      <point x="-120" y="860"/>
      <point x="-120" y="798" type="curve" smooth="yes"/>
      <point x="-120" y="736"/>
      <point x="-72" y="696"/>
    </contour>
    <contour>
      <point x="0" y="758" type="curve" smooth="yes"/>
      <point x="-21" y="758"/>
      <point x="-38" y="774"/>
      <point x="-38" y="798" type="curve" smooth="yes"/>
      <point x="-38" y="822"/>
      <point x="-21" y="838"/>
      <point x="0" y="838" type="curve" smooth="yes"/>
      <point x="21" y="838"/>
      <point x="38" y="822"/>
      <point x="38" y="798" type="curve" smooth="yes"/>
      <point x="38" y="774"/>
      <point x="21" y="758"/>
    </contour>
  </outline>
</glyph>
<glyph name="rsmall" format="2">
  <advance width="546"/>
  <anchor x="273" y="520" name="aboveLC"/>
  <anchor x="272" y="520" name="aboveUC"/>
  <anchor x="292" y="-20" name="belowLC"/>
  <outline>
    <contour>
      <point x="58" y="0" type="line"/>
      <point x="230" y="0" type="line"/>
      <point x="230" y="150" type="line"/>
      <point x="272" y="150" type="line"/>
      <point x="368" y="150"/>
      <point x="488" y="198"/>
      <point x="488" y="328" type="curve" smooth="yes"/>
      <point x="488" y="458"/>
      <point x="392" y="500"/>
      <point x="275" y="500" type="curve" smooth="yes"/>
      <point x="58" y="500" type="line"/>
    </contour>
    <contour>
      <point x="347" y="0" type="line"/>
      <point x="538" y="0" type="line"/>
      <point x="385" y="242" type="line"/>
      <point x="244" y="196" type="line"/>
    </contour>
    <contour>
      <point x="230" y="265" type="line"/>
      <point x="230" y="375" type="line"/>
      <point x="255" y="375" type="line" smooth="yes"/>
      <point x="299" y="375"/>
      <point x="319" y="357"/>
      <point x="319" y="323" type="curve" smooth="yes"/>
      <point x="319" y="290"/>
      <point x="299" y="265"/>
      <point x="255" y="265" type="curve" smooth="yes"/>
    </contour>
  </outline>
</glyph>
<glyph name="rsmallinverted" format="2">
  <advance width="546"/>
  <anchor x="273" y="520" name="aboveLC"/>
  <anchor x="273" y="564" name="aboveUC"/>
  <anchor x="273" y="-20" name="belowLC"/>
  <outline>
    <contour>
      <point x="271" y="0" type="curve" smooth="yes"/>
      <point x="488" y="0" type="line"/>
      <point x="488" y="500" type="line"/>
      <point x="316" y="500" type="line"/>
      <point x="316" y="350" type="line"/>
      <point x="274" y="350" type="line"/>
      <point x="178" y="350"/>
      <point x="58" y="302"/>
      <point x="58" y="172" type="curve" smooth="yes"/>
      <point x="58" y="42"/>
      <point x="154" y="0"/>
    </contour>
    <contour>
      <point x="291" y="125" type="line" smooth="yes"/>
      <point x="247" y="125"/>
      <point x="227" y="143"/>
      <point x="227" y="177" type="curve" smooth="yes"/>
      <point x="227" y="210"/>
      <point x="247" y="235"/>
      <point x="291" y="235" type="curve" smooth="yes"/>
      <point x="316" y="235" type="line"/>
      <point x="316" y="125" type="line"/>
    </contour>
    <contour>
      <point x="161" y="258" type="line"/>
      <point x="302" y="304" type="line"/>
      <point x="199" y="500" type="line"/>
      <point x="8" y="500" type="line"/>
    </contour>
  </outline>
</glyph>
<glyph name="seven.pnumheb" format="2">
  <advance width="480"/>
  <outline>
    <contour>
      <point x="130" y="0" type="line"/>
      <point x="290" y="0" type="line"/>
      <point x="294" y="4" type="line"/>
      <point x="308" y="264"/>
      <point x="333" y="350"/>
      <point x="456" y="496" type="curve"/>
      <point x="456" y="598" type="line"/>
      <point x="26" y="598" type="line"/>
      <point x="26" y="456" type="line"/>
      <point x="275" y="456" type="line"/>
      <point x="168" y="307"/>
      <point x="137" y="188"/>
      <point x="126" y="4" type="curve"/>
    </contour>
  </outline>
</glyph>
<glyph name="three.sups" format="2">
  <advance width="391"/>
  <outline>
    <contour>
      <point x="199" y="388" type="curve" smooth="yes"/>
      <point x="281" y="388"/>
      <point x="355" y="438"/>
      <point x="355" y="510" type="curve" smooth="yes"/>
      <point x="355" y="554"/>
      <point x="327" y="586"/>
      <point x="289" y="604" type="curve"/>
      <point x="323" y="626"/>
      <point x="341" y="652"/>
      <point x="341" y="692" type="curve" smooth="yes"/>
      <point x="341" y="760"/>
      <point x="275" y="802"/>
      <point x="201" y="802" type="curve" smooth="yes"/>
      <point x="137" y="802"/>
      <point x="97" y="782"/>
      <point x="51" y="734" type="curve"/>
      <point x="121" y="672" type="line"/>
      <point x="137" y="692"/>
      <point x="155" y="708"/>
      <point x="179" y="708" type="curve" smooth="yes"/>
      <point x="203" y="708"/>
      <point x="219" y="696"/>
      <point x="219" y="674" type="curve" smooth="yes"/>
      <point x="219" y="644"/>
      <point x="192" y="634"/>
      <point x="151" y="634" type="curve"/>
      <point x="151" y="564" type="line"/>
      <point x="208" y="564"/>
      <point x="233" y="550"/>
      <point x="233" y="520" type="curve" smooth="yes"/>
      <point x="233" y="496"/>
      <point x="212" y="482"/>
      <point x="185" y="482" type="curve" smooth="yes"/>
      <point x="155" y="482"/>
      <point x="133" y="494"/>
      <point x="109" y="526" type="curve"/>
      <point x="35" y="468" type="line"/>
      <point x="71" y="414"/>
      <point x="129" y="388"/>
    </contour>
  </outline>
</glyph>
<glyph name="two.pnumheb" format="2">
  <advance width="490"/>
  <outline>
    <contour>
      <point x="28" y="0" type="line"/>
      <point x="464" y="0" type="line"/>
      <point x="464" y="142" type="line"/>
      <point x="361" y="142" type="line" smooth="yes"/>
      <point x="338" y="142"/>
      <point x="301" y="139"/>
      <point x="273" y="136" type="curve"/>
      <point x="352" y="217"/>
      <point x="436" y="319"/>
      <point x="436" y="412" type="curve" smooth="yes"/>
      <point x="436" y="530"/>
      <point x="352" y="610"/>
      <point x="229" y="610" type="curve" smooth="yes"/>
      <point x="144" y="610"/>
      <point x="88" y="583"/>
      <point x="21" y="514" type="curve"/>
      <point x="21" y="508" type="line"/>
      <point x="107" y="422" type="line"/>
      <point x="113" y="422" type="line"/>
      <point x="141" y="450"/>
      <point x="169" y="477"/>
      <point x="207" y="477" type="curve" smooth="yes"/>
      <point x="250" y="477"/>
      <point x="275" y="451"/>
      <point x="275" y="403" type="curve" smooth="yes"/>
      <point x="275" y="342"/>
      <point x="225" y="281"/>
      <point x="28" y="95" type="curve"/>
    </contour>
  </outline>
</glyph>
<glyph name="two.sups" format="2">
  <advance width="394"/>
  <outline>
    <contour>
      <point x="61" y="400" type="line"/>
      <point x="359" y="400" type="line"/>
      <point x="359" y="504" type="line"/>
      <point x="259" y="504" type="line"/>
      <point x="303" y="556"/>
      <point x="347" y="609"/>
      <point x="347" y="668" type="curve" smooth="yes"/>
      <point x="347" y="752"/>
      <point x="287" y="802"/>
      <point x="197" y="802" type="curve" smooth="yes"/>
      <point x="135" y="802"/>
      <point x="85" y="776"/>
      <point x="41" y="720" type="curve"/>
      <point x="111" y="656" type="line"/>
      <point x="133" y="684"/>
      <point x="153" y="700"/>
      <point x="177" y="700" type="curve" smooth="yes"/>
      <point x="209" y="700"/>
      <point x="227" y="680"/>
      <point x="227" y="646" type="curve" smooth="yes"/>
      <point x="227" y="602"/>
      <point x="153" y="538"/>
      <point x="61" y="466" type="curve"/>
    </contour>
  </outline>
</glyph>
<glyph name="zero.pnumheb" format="2">
  <advance width="500"/>
  <outline>
    <contour>
      <point x="250" y="-12" type="curve" smooth="yes"/>
      <point x="389" y="-12"/>
      <point x="474" y="106"/>
      <point x="474" y="301" type="curve" smooth="yes"/>
      <point x="474" y="494"/>
      <point x="390" y="609"/>
      <point x="250" y="609" type="curve" smooth="yes"/>
      <point x="109" y="609"/>
      <point x="26" y="494"/>
      <point x="26" y="301" type="curve" smooth="yes"/>
      <point x="26" y="106"/>
      <point x="111" y="-12"/>
    </contour>
    <contour>
      <point x="250" y="119" type="curve" smooth="yes"/>
      <point x="215" y="119"/>
      <point x="185" y="147"/>
      <point x="185" y="301" type="curve" smooth="yes"/>
      <point x="185" y="428"/>
      <point x="204" y="478"/>
      <point x="250" y="478" type="curve" smooth="yes"/>
      <point x="296" y="478"/>
      <point x="315" y="428"/>
      <point x="315" y="301" type="curve" smooth="yes"/>
      <point x="315" y="147"/>
      <point x="285" y="119"/>
    </contour>
  </outline>
</glyph>
